<ttFont>
          <CharString index="0">
            -61 callgsubr
            -104 callsubr
            return
          </CharString>
          <CharString index="1">
            385 230 rmoveto
            -84 -17 -45 -84 -83 -17 45 84 vhcurveto
            471 -110 -515 -34 callsubr
            -46 99 99 111 46 -12 callsubr
            515 -110 vlineto
            return
          </CharString>
          <CharString index="2">
            49 63 27 34 -12 29 -24 12 rlinecurve
            -95 callgsubr
            return
          </CharString>
          <CharString index="3">
            -9 3 -26 27 -13 vhcurveto
            12 -3 rlineto
            0 -24 -25 -48 -27 vhcurveto
            return
          </CharString>
          <CharString index="4">
            rmoveto
            -67 39 -76 -83 -81 83 -66 -39 148 -12 callgsubr
            endchar
          </CharString>
          <CharString index="5">
            47 44 20 32 46 vvcurveto
            22 -11 39 -39 2 vhcurveto
            return
          </CharString>
          <CharString index="6">
            300 -202 vlineto
            35 -105 rlineto
            57 -9 hlineto
            -71 -50 -14 -41 -61 -39 19 67 vhcurveto
            325 vlineto
            70 46 13 56 33 23 -5 -13 35 vhcurveto
            33 99 -78 40 -106 6 -65 -38 rlinecurve
            -53 -32 -34 -51 -98 vvcurveto
            -314 vlineto
            return
          </CharString>
          <CharString index="7">
            -79 -22 -155 -45 125 vvcurveto
            328 vlineto
            47 38 34 56 33 33 -4 -13 35 vhcurveto
            31 100 -78 40 -106 6 -65 -38 rlinecurve
            -53 -32 -34 -40 -109 vvcurveto
            -321 vlineto
            return
          </CharString>
          <CharString index="8">
            50 57 -9 -55 hvcurveto
            -35 19 -100 32 -71 -35 rrcurveto
            -41 -20 -28 -41 -72 vvcurveto
            -83 vlineto
            return
          </CharString>
          <CharString index="9">
            rmoveto
            -82 -5 hlineto
            -22 -13 -13 -18 -16 -14 10 25 vhcurveto
            5 -83 -5 vlineto
            -62 51 -51 62 62 51 51 62 vhcurveto
            return
          </CharString>
          <CharString index="10">
            -110 21 rmoveto
            -62 -36 -43 -64 -28 callsubr
            vhcurveto
            267 vlineto
            76 12 50 88 89 11 -53 -74 vhcurveto
            return
          </CharString>
          <CharString index="11">
            -81 callsubr
            hintmask 11010010
            -38 callsubr
            hintmask 10110010
            -48 callgsubr
            hintmask 11010100
            25 16 39 56 vhcurveto
            hintmask 11011000
            35 31 -20 -42 hvcurveto
            return
          </CharString>
          <CharString index="12">
            -10 -10 -22 -30 -73 hhcurveto
            -77 -42 36 84 hvcurveto
            277 -110 -287 vlineto
            -134 93 -84 136 49 32 13 12 24 vhcurveto
            -56 vlineto
            return
          </CharString>
          <CharString index="13">
            315 vlineto
            181 385 rlineto
            -117 hlineto
            -120 -267 -119 267 rlineto
            -116 hlineto
            180 -385 rlineto
            -315 vlineto
            return
          </CharString>
          <CharString index="14">
            -64 callsubr
            -71 -13 -39 -13 -13 6 rcurveline
            -97 -501 109 386 hlineto
            85 43 65 -39 -75 vvcurveto
            -315 vlineto
            return
          </CharString>
          <CharString index="15">
            -114 -76 -66 -119 hvcurveto
            -149 vlineto
            -125 71 -63 115 51 26 17 3 4 vhcurveto
            -54 vlineto
            -53 -29 -25 -44 vhcurveto
            73 355 rmoveto
            return
          </CharString>
          <CharString index="16">
            517 hmoveto
            -177 700 rlineto
            -155 hlineto
            -164 -700 rlineto
            return
          </CharString>
          <CharString index="17">
            700 -172 -106 vlineto
            62 -2 rlineto
            -592 vlineto
            return
          </CharString>
          <CharString index="18">
            -237 -700 110 195 146 hlineto
            67 -195 rlineto
            -213 300 rmoveto
            289 81 vlineto
            76 51 -16 -111 -61 0 -101 -107 hvcurveto
            return
          </CharString>
          <CharString index="19">
            180 -226 -16 -13 58 vhcurveto
            12 -3 -7 30 62 hhcurveto
            57 23 -23 0 hvcurveto
            32 102 rlineto
            0 -41 29 -71 -132 -45 -85 -63 6 vhcurveto
            return
          </CharString>
          <CharString index="20">
            -44 callgsubr
            -75 callsubr
            return
          </CharString>
          <CharString index="21">
            rmoveto
            -28 -13 -22 -7 -8 hhcurveto
            -8 -21 -2 26 -4 hvcurveto
            return
          </CharString>
          <CharString index="22">
            -46 callsubr
            -29 callgsubr
            hintmask 01010000
            451 316 rmoveto
            121 -69 75 -116 vhcurveto
            hintmask 10100000
            -90 callgsubr
            vhcurveto
            hintmask 10010000
            -49 callsubr
            hintmask 01100000
            -62 callsubr
            hintmask 10010000
            -82 callgsubr
            hintmask 10100000
            29 47 -4 -81 hvcurveto
            return
          </CharString>
          <CharString index="23">
            570 hmoveto
            700 -111 -470 vlineto
            -271 470 rlineto
            -74 callgsubr
            473 hlineto
            271 -473 rlineto
            return
          </CharString>
          <CharString index="24">
            -210 rmoveto
            103 12 31 56 81 vvcurveto
            408 vlineto
            32 19 31 41 10 vhcurveto
            -41 90 rlineto
            -77 -7 -52 -72 -68 vvcurveto
            -157 vlineto
            -91 -28 -17 -54 -50 -23 20 88 vhcurveto
            295 vlineto
            return
          </CharString>
          <CharString index="25">
            28 -23 23 -28 -27 -23 -23 -28 -27 23 -23 27 28 23 23 27 vhcurveto
            return
          </CharString>
          <CharString index="26">
            15 callgsubr
            hintmask 11011000
            -96 callgsubr
            return
          </CharString>
          <CharString index="27">
            445 hmoveto
            104 -220 vlineto
            210 297 rlineto
            100 -348 -104 200 vlineto
            -209 -293 rlineto
            -104 vlineto
            return
          </CharString>
          <CharString index="28">
            -58 callgsubr
            hintmask 11100000
            -99 callsubr
            hintmask 11010000
            -68 callsubr
            hintmask 11100000
            17 callsubr
            hintmask 11010000
            -78 callgsubr
            hintmask 11100000
            -63 callgsubr
            return
          </CharString>
          <CharString index="29">
            -27 callsubr
            rlineto
            return
          </CharString>
          <CharString index="30">
            39 21 -66 callsubr
            217 -20 8 callsubr
            481 96 rmoveto
            -24 1 -22 9 -40 54 -99 140 rcurveline
            182 201 rlineto
            -136 hlineto
            -154 -168 rlineto
            166 vlineto
            -110 13 rlineto
            -512 110 195 vlineto
            27 24 79 -109 42 -57 38 -53 74 -1 rlinecurve
            endchar
          </CharString>
          <CharString index="31">
            37 178 rmoveto
            -89 3 78 -100 155 hhcurveto
            171 68 96 109 hvcurveto
            return
          </CharString>
          <CharString index="32">
            -53 callsubr
            -24 callsubr
            return
          </CharString>
          <CharString index="33">
            -211 rmoveto
            -11 30 40 -10 32 hhcurveto
            55 85 28 81 60 -44 32 -42 -9 -14 -3 -4 -11 hvcurveto
            return
          </CharString>
          <CharString index="34">
            -8 -24 -7 -23 -8 -24 -17 -49 3 -63 35 -36 32 10 33 11 32 10 -14 26 -17 12 27 79 40 132 40 133 40 132 return
          </CharString>
          <CharString index="35">
            -24 14 -6 28 0 vvcurveto
            312 vlineto
            32 7 65 0 vhcurveto
            -99 25 -9 -25 rlineto
            -69 26 -195 39 -197 vvcurveto
            -185 vlineto
            -198 183 -1 87 38 vhcurveto
            0 12 -8 2 vhcurveto
            -30 110 rmoveto
            -146 -47 2 84 64 vvcurveto
            140 vlineto
            74 105 -22 39 -19 vhcurveto
            return
          </CharString>
          <CharString index="36">
            35 -50 44 22 rlineto
            47 23 28 -13 -27 vvcurveto
            -30 -33 -10 -27 -21 -20 0 25 -37 vhcurveto
            endchar
          </CharString>
          <CharString index="37">
            hmoveto
            589 148 111 -402 -111 144 -589 vlineto
            return
          </CharString>
          <CharString index="38">
            -12 51 138 225 -124 232 return
          </CharString>
          <CharString index="39">
            -214 226 30 159 15 vhcurveto
            return
          </CharString>
          <CharString index="40">
            rmoveto
            278 699 rlineto
            -119 hlineto
            -135 -352 -130 352 rlineto
            -122 hlineto
            189 -501 -83 -198 rlineto
            return
          </CharString>
          <CharString index="41">
            -21 517 -20 return
          </CharString>
          <CharString index="42">
            116 41 59 87 hvcurveto
            565 -88 vlineto
            -21 -11 rlineto
            7 -6 -30 13 -42 hhcurveto
            return
          </CharString>
          <CharString index="43">
            hmoveto
            346 vlineto
            76 -35 46 -50 23 vhcurveto
            -64 30 return
          </CharString>
          <CharString index="44">
            501 -110 -501 vlineto
            return
          </CharString>
          <CharString index="45">
            -109 -10 rmoveto
            -54 -35 -22 -41 vhcurveto
            return
          </CharString>
          <CharString index="46">
            -47 -44 -20 -32 -46 vvcurveto
            -22 11 -39 39 -2 vhcurveto
            32 -2 24 24 31 vvcurveto
            return
          </CharString>
          <CharString index="47">
            -110 -700 return
          </CharString>
          <CharString index="48">
            110 vstem
            return
          </CharString>
          <CharString index="49">
            700 -109 -287 -211 287 -74 callgsubr
            308 211 -308 vlineto
            return
          </CharString>
          <CharString index="50">
            -162 -241 rlineto
            241 -118 -701 118 268 vlineto
            7 10 189 -278 rlineto
            return
          </CharString>
          <CharString index="51">
            hstemhm
            -51 callgsubr
            return
          </CharString>
          <CharString index="52">
            583 -107 callgsubr
            hintmask 11110000
            return
          </CharString>
          <CharString index="53">
            80 64 64 80 80 -64 64 -80 -80 -64 -64 -80 return
          </CharString>
          <CharString index="54">
            177 -28 callgsubr
            return
          </CharString>
          <CharString index="55">
            -25 20 -20 25 return
          </CharString>
          <CharString index="56">
            -110 -86 callsubr
            return
          </CharString>
          <CharString index="57">
            -36 callsubr
            endchar
          </CharString>
          <CharString index="58">
            132 53 92 102 hvcurveto
            return
          </CharString>
          <CharString index="59">
            110 413 rmoveto
            177 58 vlineto
            64 37 -19 -65 -71 -38 -22 -73 hvcurveto
            -48 -312 rmoveto
            206 70 vlineto
            64 63 -16 -84 -95 -56 -11 -80 hvcurveto
            endchar
          </CharString>
          <CharString index="60">
            68 0 42 555 119 return
          </CharString>
          <CharString index="61">
            -10 411 -303 414 return
          </CharString>
          <CharString index="62">
            21 -21 714 -20 return
          </CharString>
          <CharString index="63">
            rmoveto
            187 187 rlineto
            1 vlineto
            -187 187 -73 -72 120 -116 return
          </CharString>
          <CharString index="64">
            190 rmoveto
            152 vlineto
            return
          </CharString>
          <CharString index="65">
            29 25 25 29 29 -25 25 -29 -29 -25 -25 -29 -29 25 -25 29 hvcurveto
            return
          </CharString>
          <CharString index="66">
            -112 -568 hlineto
            -78 33 -65 119 -2 vhcurveto
            return
          </CharString>
          <CharString index="67">
            -12 -35 callsubr
            return
          </CharString>
          <CharString index="68">
            -64 30 -81 -12 -29 -12 rrcurveto
            203 -74 callgsubr
            389 vlineto
            32 21 117 28 -131 vvcurveto
            -307 vlineto
            endchar
          </CharString>
          <CharString index="69">
            -68 callgsubr
            hintmask 10111000
            138 110 rmoveto
            return
          </CharString>
          <CharString index="70">
            26 107 -53 11 -47 13 -70 -24 rlinecurve
            -8 4 rlineto
            -102 -501 hlineto
            return
          </CharString>
          <CharString index="71">
            rmoveto
            91 -217 -91 vlineto
            return
          </CharString>
          <CharString index="72">
            75 -42 -66 callsubr
            return
          </CharString>
          <CharString index="73">
            vlineto
            -147 112 return
          </CharString>
          <CharString index="74">
            -242 70 -95 -98 -141 vvcurveto
            -517 112 -31 callgsubr
            71 91 2 22 -29 vhcurveto
            return
          </CharString>
          <CharString index="75">
            463 -58 callgsubr
            return
          </CharString>
          <CharString index="76">
            rmoveto
            0 24 25 48 27 vhcurveto
            -69 29 rlineto
            return
          </CharString>
          <CharString index="77">
            hmoveto
            322 vlineto
            70 77 32 67 -34 vhcurveto
            return
          </CharString>
          <CharString index="78">
            21 -3 callsubr
            76 return
          </CharString>
          <CharString index="79">
            -71 -29 43 60 return
          </CharString>
          <CharString index="80">
            rmoveto
            49 63 return
          </CharString>
          <CharString index="81">
            hmoveto
            -261 376 222 325 rlineto
            -132 hlineto
            return
          </CharString>
          <CharString index="82">
            rrcurveto
            107 hlineto
            24 89 25 89 24 89 72 -267 rcurveline
            return
          </CharString>
          <CharString index="83">
            -334 -700 return
          </CharString>
          <CharString index="84">
            169 0 230 243 227 return
          </CharString>
          <CharString index="85">
            38 16 43 60 65 16 -38 -48 vhcurveto
            return
          </CharString>
          <CharString index="86">
            89 -45 77 16 125 11 rrcurveto
            700 -109 -202 vlineto
            -31 11 -78 12 -66 -31 rrcurveto
            return
          </CharString>
          <CharString index="87">
            100 -222 208 -5 callgsubr
            return
          </CharString>
          <CharString index="88">
            300 -275 251 return
          </CharString>
          <CharString index="89">
            76 -83 rlineto
            return
          </CharString>
          <CharString index="90">
            -59 callsubr
            13 83 rmoveto
            -57 38 65 -38 74 hhcurveto
            118 95 95 118 118 return
          </CharString>
          <CharString index="91">
            -43 callsubr
            -33 callgsubr
            return
          </CharString>
          <CharString index="92">
            -28 callsubr
            hvcurveto
            267 vlineto
            return
          </CharString>
          <CharString index="93">
            0 75 367 75 return
          </CharString>
          <CharString index="94">
            -38 -45 22 76 54 45 32 38 60 17 -53 -35 -75 -44 -21 -33 hvcurveto
            endchar
          </CharString>
          <CharString index="95">
            147 vhcurveto
            return
          </CharString>
          <CharString index="96">
            770 -104 callgsubr
            return
          </CharString>
          <CharString index="97">
            -10 -29 -11 -28 -10 -29 67 -4 -1 -27 34 -103 -10 -13 -21 -5 -30 -90 return
          </CharString>
          <CharString index="98">
            -68 -43 40 58 -6 hvcurveto
            return
          </CharString>
          <CharString index="99">
            18 15 15 18 18 -15 15 -18 -18 -15 -15 -18 -18 15 -15 18 hvcurveto
            return
          </CharString>
          <CharString index="100">
            -60 28 -85 -10 -30 -12 -8 4 rcurveline
            -101 -501 109 386 hlineto
            return
          </CharString>
          <CharString index="101">
            hstemhm
            37 118 -101 119 return
          </CharString>
          <CharString index="102">
            0 80 554 80 return
          </CharString>
          <CharString index="103">
            rmoveto
            65 -12 15 -3 8 vhcurveto
            40 10 48 38 12 32 -78 65 rcurveline
            return
          </CharString>
          <CharString index="104">
            -12 51 394 return
          </CharString>
          <CharString index="105">
            -322 vlineto
            return
          </CharString>
          <CharString index="106">
            110 -24 callsubr
            vlineto
            endchar
          </CharString>
          <CharString index="107">
            -40 callsubr
            41 143 -56 callsubr
            return
          </CharString>
          <CharString index="108">
            56 -10 18 13 -21 659 51 return
          </CharString>
          <CharString index="109">
            75 hstemhm
            36 110 -98 119 return
          </CharString>
          <CharString index="110">
            -65 -15 -45 -30 -23 -77 return
          </CharString>
          <CharString index="111">
            9 -3 26 -27 13 vhcurveto
            return
          </CharString>
          <CharString index="112">
            30 -90 21 -5 10 -13 return
          </CharString>
          <CharString index="113">
            80 -17 80 588 80 return
          </CharString>
          <CharString index="114">
            -12 51 421 69 return
          </CharString>
          <CharString index="115">
            -18 callgsubr
            vstem
            return
          </CharString>
          <CharString index="116">
            vlineto
            -116 57 return
          </CharString>
          <CharString index="117">
            109 vstem
            return
          </CharString>
          <CharString index="118">
            -203 21 -66 callsubr
            41 143 -71 104 hstemhm
            return
          </CharString>
          <CharString index="119">
            rmoveto
            91 -216 -91 vlineto
            endchar
          </CharString>
          <CharString index="120">
            hintmask 1111110010000000
            149 105 hlineto
            hintmask 1111100110000000
            -149 return
          </CharString>
          <CharString index="121">
            51 394 76 hstemhm
            37 275 -164 274 return
          </CharString>
          <CharString index="122">
            rmoveto
            537 680 -89 66 -531 -676 rlineto
            return
          </CharString>
          <CharString index="123">
            -65 callgsubr
            rlineto
            endchar
          </CharString>
          <CharString index="124">
            -110 97 rmoveto
            return
          </CharString>
          <CharString index="125">
            116 -107 32 return
          </CharString>
          <CharString index="126">
            109 -61 85 -129 -28 -33 -9 -8 -18 return
          </CharString>
          <CharString index="127">
            -210 86 112 413 -307 416 return
          </CharString>
          <CharString index="128">
            85 48 66 -29 -62 vvcurveto
            -529 vlineto
            endchar
          </CharString>
          <CharString index="129">
            21 -21 634 80 return
          </CharString>
          <CharString index="130">
            -232 69 65 50 return
          </CharString>
          <CharString index="131">
            21 -21 472 55 return
          </CharString>
          <CharString index="132">
            78 157 rmoveto
            -72 33 -44 45 -23 vhcurveto
            return
          </CharString>
          <CharString index="133">
            143 -142 143 return
          </CharString>
        <CharString name=".notdef">
          19 0 650 -600 650 hstemhm
          0 450 -400 450 hintmask 10010000
          500 hmoveto
          hintmask 01010000
          700 vlineto
          hintmask 01100000
          -500 hlineto
          hintmask 10100000
          -700 vlineto
          hintmask 10010000
          hintmask 01100000
          450 50 rmoveto
          hintmask 01010000
          -400 hlineto
          hintmask 10010000
          600 vlineto
          hintmask 10100000
          400 hlineto
          hintmask 01100000
          -25 -517 rmoveto
          -145 217 145 217 -39 32 -136 -204 -137 205 -40 -29 147 -221 -147 -221 40 -29 137 205 136 -204 rlineto
          endchar
        </CharString>
        <CharString name=".null">
          -481 endchar
        </CharString>
        <CharString name="A">
          -43 callgsubr
          hstem
          145 241 vstem
          -91 callsubr
          -101 callgsubr
          endchar
        </CharString>
        <CharString name="AE">
          337 0 101 94 267 128 110 hstem
          78 366 1 -59 callsubr
          777 hmoveto
          101 -222 207 118 vlineto
          34 105 rlineto
          -152 -53 callsubr
          -335 hlineto
          -366 -700 rlineto
          130 hlineto
          100 195 rlineto
          137 hlineto
          -1 -195 rlineto
          1 300 rmoveto
          -82 hlineto
          82 162 rlineto
          endchar
        </CharString>
        <CharString name="Aacute">
          -43 callgsubr
          451 -27 callgsubr
          145 241 -153 109 hintmask 11110000
          -91 callsubr
          -101 callgsubr
          40 215 -78 callsubr
          hintmask 11101000
          -106 callgsubr
          -65 callgsubr
          rcurveline
          endchar
        </CharString>
        <CharString name="Abreve">
          -43 callgsubr
          563 0 36 -20 hstemhm
          145 241 -151 143 hintmask 11111000
          -91 callsubr
          -101 callgsubr
          hintmask 11110100
          116 332 -98 callsubr
          endchar
        </CharString>
        <CharString name="Acircumflex">
          -43 callgsubr
          450 142 hstemhm
          138 251 -244 241 hintmask 11110000
          -91 callsubr
          hintmask 11101000
          -101 callgsubr
          148 254 -104 callgsubr
          endchar
        </CharString>
        <CharString name="Adieresis">
          -43 callgsubr
          511 104 hstemhm
          124 90 -69 241 -74 90 hintmask 11110100
          -91 callsubr
          hintmask 11101000
          -101 callgsubr
          -22 259 -107 callgsubr
          endchar
        </CharString>
        <CharString name="Agrave">
          -43 callgsubr
          451 -27 callgsubr
          145 241 -219 119 96 109 hintmask 11101100
          -91 callsubr
          hintmask 11110000
          -101 callgsubr
          hintmask 11101100
          24 217 -97 callgsubr
          endchar
        </CharString>
        <CharString name="Alpha">
          42 21 -21 215 80 -50 55 328 86 hstemhm
          -7 663 -511 241 hintmask 11011000
          -91 callsubr
          hintmask 11010100
          124 hlineto
          39 183 rlineto
          161 hlineto
          41 -183 rlineto
          hintmask 10111000
          -67 300 rmoveto
          -109 hlineto
          52 216 rlineto
          endchar
        </CharString>
        <CharString name="Alphatonos">
          146 21 -21 245 55 267 143 -141 -27 callgsubr
          82 109 -49 386 -312 241 hintmask 11010100
          588 hmoveto
          -177 700 rlineto
          -155 hlineto
          -164 -700 rlineto
          hintmask 11011010
          -101 callgsubr
          hintmask 11100100
          -182 51 -78 callsubr
          hintmask 11011010
          -91 callgsubr
          hintmask 11100100
          16 callsubr
        </CharString>
        <CharString name="Amacron">
          -43 callgsubr
          450 91 hstemhm
          93 334 -282 241 hintmask 11110000
          -91 callsubr
          hintmask 11101000
          -101 callgsubr
          106 214 -50 callsubr
        </CharString>
        <CharString name="Aogonek">
          166 -213 50 184 -21 300 -20 hstemhm
          202 241 -24 68 hintmask 11101000
          559 -110 -79 callgsubr
          1 hlineto
          -177 700 rlineto
          -155 hlineto
          -164 -700 rlineto
          hintmask 11110000
          124 hlineto
          39 183 rlineto
          161 hlineto
          41 -183 rlineto
          61 hlineto
          -80 -49 -12 -48 -1 -20 -85 callgsubr
          -232 463 rmoveto
          -109 hlineto
          52 216 rlineto
          endchar
        </CharString>
        <CharString name="Aring">
          -43 callgsubr
          490 29 hstemhm
          145 241 -153 30 hintmask 11101000
          517 hmoveto
          -176 697 rlineto
          18 19 11 25 29 vvcurveto
          59 -48 48 -59 -59 -48 -48 -59 -28 11 -26 17 -19 vhcurveto
          -163 -697 rlineto
          hintmask 11110000
          -101 callgsubr
          hintmask 11101000
          1 224 -16 callgsubr
        </CharString>
        <CharString name="Atilde">
          -43 callgsubr
          454 18 callgsubr
          96 351 -302 241 hintmask 11010100
          -91 callsubr
          -101 callgsubr
          143 330 rmoveto
          hintmask 11101000
          -102 callgsubr
        </CharString>
        <CharString name="B">
          69 101 0 312 0 234 67 -56 callsubr
          0 287 -287 323 hintmask 11100100
          -23 callgsubr
          hintmask 11101000
          14 callgsubr
          hintmask 11110000
          -204 -700 hlineto
          -48 callsubr
        </CharString>
        <CharString name="Beta">
          69 0 80 21 0 226 80 6 0 0 234 -13 80 hstemhm
          78 95 -95 110 0 287 -287 323 -94 58 40 95 hintmask 1111011001010000
          -23 callgsubr
          hintmask 1111011010010000
          14 callgsubr
          -204 -700 hlineto
          hintmask 1110100100110000
          -48 callsubr
        </CharString>
        <CharString name="C">
          -8 callgsubr
          hstem
          66 -59 callsubr
          410 127 rmoveto
          -100 callsubr
          -47 callgsubr
          endchar
        </CharString>
        <CharString name="CR">
          -203 endchar
        </CharString>
        <CharString name="Cacute">
          -8 callgsubr
          24 143 hstem
          66 110 52 10 callsubr
          410 127 rmoveto
          -100 callsubr
          -47 callgsubr
          -130 711 -66 callgsubr
          endchar
        </CharString>
        <CharString name="Ccaron">
          -8 callgsubr
          68 47 hstemhm
          66 110 -101 300 hintmask 11101000
          410 127 rmoveto
          hintmask 11110000
          -100 callsubr
          -47 callgsubr
          -29 852 -103 callsubr
        </CharString>
        <CharString name="Ccedilla">
          -51 23 callsubr
          36 52 619 51 hstem
          66 110 98 93 vstem
          125 -74 callsubr
          19 28 53 1 56 12 52 20 rlinecurve
          -17 104 rlineto
          -100 callsubr
          -116 57 -54 78 -17 vhcurveto
          -58 -74 -71 callsubr
        </CharString>
        <CharString name="Ccircumflex">
          -8 callgsubr
          20 10 callgsubr
          hstem
          120 251 31 8 vstem
          392 -11 callsubr
          85 -604 rmoveto
          -100 callsubr
          -47 callgsubr
          endchar
        </CharString>
        <CharString name="Cdotaccent">
          -8 callgsubr
          -31 104 hstem
          66 110 24 119 vstem
          410 127 rmoveto
          -100 callsubr
          -47 callgsubr
          -161 707 -98 callgsubr
          endchar
        </CharString>
        <CharString name="Chi">
          213 -45 callsubr
          hstemhm
          85 472 -467 548 hintmask 11100000
          655 hmoveto
          -222 359 rlineto
          hintmask 11010000
          -55 callgsubr
        </CharString>
        <CharString name="D">
          3 callgsubr
          hstemhm
          78 310 -118 228 hintmask 10010000
          286 hmoveto
          115 97 45 155 hvcurveto
          274 vlineto
          hintmask 01100000
          132 -77 95 -155 vhcurveto
          -188 hlineto
          hintmask 10100000
          -701 vlineto
          310 190 rmoveto
          hintmask 01010000
          -84 -64 -5 -54 vhcurveto
          -82 hlineto
          hintmask 10100000
          489 88 vlineto
          75 37 -32 -74 hvcurveto
          endchar
        </CharString>
        <CharString name="Dcaron">
          3 callgsubr
          77 47 hstemhm
          78 310 -295 300 -123 -72 callgsubr
          28 391 -103 callsubr
        </CharString>
        <CharString name="Dcroat">
          3 callgsubr
          29 91 hstemhm
          78 310 -271 334 -181 -72 callgsubr
          4 246 -50 callsubr
        </CharString>
        <CharString name="Delta">
          141 0 65 557 91 hstem
          97 586 vstem
          583 -62 callgsubr
        </CharString>
        <CharString name="E">
          -46 callgsubr
          8 callsubr
          410 hmoveto
          100 -222 208 106 vlineto
          -87 callsubr
          hlineto
          endchar
        </CharString>
        <CharString name="Eacute">
          -46 callgsubr
          30 143 -18 callgsubr
          53 10 callsubr
          410 hmoveto
          100 -222 208 106 vlineto
          -87 callsubr
          hlineto
          232 730 -66 callgsubr
          endchar
        </CharString>
        <CharString name="Ecaron">
          -46 callgsubr
          78 47 hstemhm
          70 300 -292 110 hintmask 11110000
          410 hmoveto
          100 vlineto
          hintmask 11101000
          23 callgsubr
          hlineto
          -87 callsubr
          hlineto
          315 875 -103 callsubr
        </CharString>
        <CharString name="Ecircumflex">
          -46 callgsubr
          30 142 -56 callsubr
          -68 251 hintmask 11101000
          410 hmoveto
          100 vlineto
          hintmask 11110000
          23 callgsubr
          hlineto
          -87 callsubr
          hlineto
          314 -11 callsubr
          endchar
        </CharString>
        <CharString name="Edieresis">
          -46 callgsubr
          8 callsubr
          410 hmoveto
          100 -222 208 106 vlineto
          -87 callsubr
          hlineto
          142 775 -107 callgsubr
          endchar
        </CharString>
        <CharString name="Edotaccent">
          -46 callgsubr
          -21 104 -56 callsubr
          2 119 hintmask 10111000
          -3 callgsubr
          hintmask 11011000
          -75 callsubr
          vlineto
          178 730 -98 callgsubr
          endchar
        </CharString>
        <CharString name="Egrave">
          -46 callgsubr
          30 143 -56 callsubr
          -27 119 96 109 hintmask 11110100
          410 hmoveto
          100 -222 208 106 vlineto
          -87 callsubr
          hlineto
          hintmask 11101100
          202 732 -97 callgsubr
          endchar
        </CharString>
        <CharString name="Emacron">
          -46 callgsubr
          30 91 hstemhm
          77 334 -333 110 hintmask 11110000
          410 hmoveto
          100 vlineto
          hintmask 11101000
          23 callgsubr
          hlineto
          -87 callsubr
          hlineto
          274 730 -50 callsubr
        </CharString>
        <CharString name="Eng">
          169 -17 80 42 58 310 227 -56 callsubr
          -109 110 270 111 hintmask 11101100
          459 230 rmoveto
          hintmask 11110100
          -90 157 -91 156 -90 157 rrcurveto
          -74 callgsubr
          473 hlineto
          76 -135 78 -135 77 -134 rrcurveto
          -11 -21 -24 -1 -17 hhcurveto
          12 -31 12 -32 12 -31 rrcurveto
          82 1 95 53 146 vvcurveto
          537 -168 -106 vlineto
          57 -2 rlineto
          endchar
        </CharString>
        <CharString name="Eogonek">
          16 -213 50 163 100 490 110 -18 callgsubr
          67 68 vstem
          395 -110 -79 callgsubr
          1 100 23 callgsubr
          hlineto
          -87 callsubr
          262 hlineto
          -80 -49 -12 -48 -1 -20 -85 callgsubr
          endchar
        </CharString>
        <CharString name="Epsilon">
          -30 0 100 227 80 183 110 -66 80 -56 callsubr
          hintmask 11011000
          -3 callgsubr
          hintmask 11101000
          -75 callsubr
          vlineto
          endchar
        </CharString>
        <CharString name="Epsilontonos">
          137 0 50 50 208 260 26 callsubr
          -64 52 hstemhm
          82 109 -103 109 48 56 276 2 hintmask 1110001110000000
          151 568 -78 callsubr
          hintmask 1101010110000000
          -91 callgsubr
          hintmask 1110001110000000
          -65 callgsubr
          rlineto
          499 -568 rmoveto
          -20 callsubr
          177 224 hlineto
          hintmask 1100101110000000
          -1 callsubr
        </CharString>
        <CharString name="Eta">
          100 21 -21 327 80 307 -20 hstemhm
          72 56 -48 110 211 109 -64 56 49 95 hintmask 11110101
          510 hmoveto
          700 -109 -287 vlineto
          hintmask 11101011
          -211 287 -74 callgsubr
          308 hlineto
          hintmask 11110101
          211 -308 hlineto
          endchar
        </CharString>
        <CharString name="Etatonos">
          235 568 26 callsubr
          hstemhm
          80 109 -107 109 48 56 273 109 -64 56 hintmask 10101010
          151 568 -78 callsubr
          hintmask 01011010
          -91 callgsubr
          hintmask 10101010
          -65 callgsubr
          rlineto
          hintmask 01101100
          599 -568 rmoveto
          -58 callsubr
          endchar
        </CharString>
        <CharString name="Eth">
          163 0 50 -50 395 -70 80 32 80 73 111 -51 51 hstemhm
          78 527 -478 56 -56 110 -60 320 -172 222 -56 56 hintmask 0101010001000000
          335 hmoveto
          hintmask 1011010100010000
          115 97 45 155 hvcurveto
          hintmask 0101010100100000
          195 vlineto
          hintmask 0101011000000000
          58 105 -59 hlineto
          118 -10 -77 83 -144 hhcurveto
          hintmask 1011100100010000
          -188 -201 hlineto
          hintmask 1011011000000000
          -49 hlineto
          hintmask 0101011000000000
          -105 vlineto
          hintmask 0101010100010000
          49 -395 hlineto
          310 190 rmoveto
          -84 -64 -5 -54 vhcurveto
          hintmask 1011010010010000
          -82 hlineto
          hintmask 0101100010100000
          294 200 vlineto
          -200 105 rmoveto
          90 88 vlineto
          69 37 -28 -62 5 hvcurveto
          endchar
        </CharString>
        <CharString name="Euro">
          58 -12 75 65 80 37 55 58 56 220 75 hstemhm
          78 320 -273 53 -39 110 174 53 hintmask 1111101010000000
          483 121 rmoveto
          hintmask 1111100110000000
          -79 -22 -155 -45 125 vvcurveto
          19 vlineto
          13 callsubr
          48 hlineto
          13 callsubr
          51 hlineto
          47 38 34 56 33 33 -4 -13 35 vhcurveto
          31 100 -78 40 -106 6 -65 -38 rlinecurve
          -53 -32 -34 -40 -109 vvcurveto
          -42 vlineto
          25 callgsubr
          -48 hlineto
          25 callgsubr
          -21 hlineto
          -47 callgsubr
          endchar
        </CharString>
        <CharString name="F">
          -30 590 110 hstemhm
          77 111 vstemhm
          188 hmoveto
          308 104 vlineto
          36 105 rlineto
          -140 -53 callsubr
          hlineto
          hintmask 11000000
          -24 callsubr
          hlineto
          endchar
        </CharString>
        <CharString name="G">
          1 callsubr
          hstemhm
          65 110 191 110 hintmask 01111000
          476 hmoveto
          -101 callsubr
          hintmask 10111000
          -34 callgsubr
          hintmask 01111000
          6 -8 rlineto
          endchar
        </CharString>
        <CharString name="Gamma">
          -30 21 -21 327 80 227 80 hstem
          79 -59 callsubr
          189 hmoveto
          590 223 -1 callsubr
        </CharString>
        <CharString name="Gbreve">
          1 callsubr
          131 0 36 -20 hstemhm
          65 110 71 143 -23 110 hintmask 01111101
          476 hmoveto
          -101 callsubr
          hintmask 10111101
          -34 callgsubr
          hintmask 01111101
          6 -8 rlineto
          hintmask 10111110
          17 846 -98 callsubr
          endchar
        </CharString>
        <CharString name="Gcircumflex">
          1 callsubr
          20 142 hstemhm
          65 110 -20 251 -40 110 hintmask 01111010
          476 hmoveto
          -101 callsubr
          hintmask 10110100
          -142 106 -57 105 vhcurveto
          hintmask 10111010
          46 21 10 8 23 hvcurveto
          hintmask 01110100
          6 -8 rlineto
          hintmask 01111010
          55 -11 callsubr
          endchar
        </CharString>
        <CharString name="Gcommaaccent">
          56 -134 111 13 18 13 -21 659 51 hstemhm
          65 110 46 42 103 110 hintmask 10111110
          476 hmoveto
          -101 callsubr
          hintmask 11011110
          -34 callgsubr
          hintmask 10111110
          6 -8 rlineto
          -112 -218 rmoveto
          -107 callsubr
          endchar
        </CharString>
        <CharString name="Gdotaccent">
          85 -17 80 615 104 -68 -20 -2 callgsubr
          43 119 39 -59 callsubr
          293 729 -98 callgsubr
          203 -729 rmoveto
          -101 callsubr
          -34 callgsubr
          6 -8 rlineto
          endchar
        </CharString>
        <CharString name="H">
          107 -51 callgsubr
          211 10 callsubr
          508 hmoveto
          -58 callsubr
          endchar
        </CharString>
        <CharString name="Hbar">
          204 403 80 hstemhm
          78 527 -478 110 211 109 hintmask 10110000
          557 hmoveto
          473 vlineto
          hintmask 11000000
          48 105 hlineto
          hintmask 10110000
          -48 122 -109 -122 -211 122 -110 -122 hlineto
          hintmask 11000000
          -49 -105 hlineto
          hintmask 10110000
          49 -473 110 308 211 -308 hlineto
          413 vmoveto
          -211 60 211 hlineto
          endchar
        </CharString>
        <CharString name="Hcircumflex">
          107 730 10 callgsubr
          -18 callgsubr
          -20 251 -20 10 callsubr
          508 hmoveto
          -58 callsubr
          41 -11 callsubr
          endchar
        </CharString>
        <CharString name="I">
          -168 123 -59 callsubr
          233 hmoveto
          -90 callsubr
          endchar
        </CharString>
        <CharString name="Iacute">
          -98 730 -27 callgsubr
          140 110 -81 109 hintmask 11000000
          250 hmoveto
          -90 callsubr
          98 730 -78 callsubr
          hintmask 10100000
          -106 callgsubr
          -65 callgsubr
          rcurveline
          endchar
        </CharString>
        <CharString name="Icircumflex">
          -33 730 10 callgsubr
          hstem
          96 251 -177 -59 callsubr
          280 hmoveto
          -90 callsubr
          198 -11 callsubr
          endchar
        </CharString>
        <CharString name="Idieresis">
          -101 152 -59 callsubr
          262 hmoveto
          -90 callsubr
          15 773 -107 callgsubr
          endchar
        </CharString>
        <CharString name="Idotaccent">
          -143 679 104 hstem
          134 119 -53 50 vstem
          250 hmoveto
          -90 callsubr
          60 730 -98 callgsubr
          endchar
        </CharString>
        <CharString name="Igrave">
          -151 730 -27 callgsubr
          129 119 -108 110 94 109 hintmask 10110000
          250 hmoveto
          -90 callsubr
          hintmask 11010000
          108 732 -97 callgsubr
          endchar
        </CharString>
        <CharString name="Imacron">
          -107 730 91 hstem
          20 333 -211 -59 callsubr
          252 hmoveto
          -90 callsubr
          152 730 12 callsubr
        </CharString>
        <CharString name="Iogonek">
          -116 -213 50 hstemhm
          96 68 -24 110 hintmask 11000000
          236 -51 callsubr
          hintmask 10100000
          -4 28 24 35 70 58 rrcurveto
          700 -172 -106 vlineto
          62 -2 rlineto
          -592 41 vlineto
          -80 -49 -12 -48 -1 -20 -85 callgsubr
          endchar
        </CharString>
        <CharString name="Iota">
          -158 -45 callsubr
          hstem
          142 110 -101 56 -44 95 vstem
          252 hmoveto
          -90 callsubr
          endchar
        </CharString>
        <CharString name="Iotadieresis">
          -101 80 62 2 56 vstem
          176 775 -107 callgsubr
          -12 -731 rmoveto
          -90 callsubr
          endchar
        </CharString>
        <CharString name="Iotatonos">
          -34 568 26 callsubr
          hstemhm
          82 109 -50 109 48 110 -53 56 hintmask 01011000
          408 hmoveto
          -90 callsubr
          hintmask 10010100
          -147 568 -78 callsubr
          hintmask 01100100
          -91 callgsubr
          hintmask 10010100
          16 callsubr
        </CharString>
        <CharString name="Itilde">
          28 709 18 callgsubr
          78 351 -221 110 hintmask 01010000
          318 hmoveto
          -90 callsubr
          179 821 rmoveto
          hintmask 10100000
          -102 callgsubr
        </CharString>
        <CharString name="J">
          -247 -17 80 hstem
          90 108 -108 10 callsubr
          -32 callgsubr
          endchar
        </CharString>
        <CharString name="Jcircumflex">
          -203 -17 80 778 0 36 -20 hstemhm
          90 108 -99 143 hintmask 11110000
          -32 callgsubr
          hintmask 11101000
          257 789 -98 callsubr
          endchar
        </CharString>
        <CharString name="K">
          51 -45 callsubr
          hstem
          79 118 vstem
          530 -26 callsubr
          -57 callsubr
          endchar
        </CharString>
        <CharString name="Kappa">
          87 -45 callsubr
          hstemhm
          77 95 -94 118 hintmask 11100000
          529 -26 callsubr
          hintmask 11010000
          -57 callsubr
          endchar
        </CharString>
        <CharString name="Kcommaaccent">
          51 -134 111 44 -21 714 -20 hstem
          79 118 20 42 vstem
          530 -26 callsubr
          -57 callsubr
          -137 -218 rmoveto
          -107 callsubr
          endchar
        </CharString>
        <CharString name="L">
          -41 0 80 634 -20 8 callsubr
          -25 callgsubr
          endchar
        </CharString>
        <CharString name="Lacute">
          -41 0 80 634 -20 37 143 -56 callsubr
          -81 109 hintmask 11010000
          -25 callgsubr
          hintmask 00101000
          98 731 -66 callgsubr
          endchar
        </CharString>
        <CharString name="Lambda">
          51 0 95 619 -20 hstemhm
          8 614 -477 255 hintmask 11100000
          526 hmoveto
          -203 700 rlineto
          -102 hlineto
          -200 -700 rlineto
          hintmask 11010000
          124 hlineto
          126 454 129 -454 rlineto
          endchar
        </CharString>
        <CharString name="Lcaron">
          51 0 80 634 -20 84 47 hstemhm
          45 300 -175 110 hintmask 11110000
          531 hmoveto
          101 vlineto
          hintmask 11101000
          -251 599 -60 callsubr
          hlineto
          198 875 -103 callsubr
        </CharString>
        <CharString name="Lcommaaccent">
          -41 -135 111 24 80 634 -20 -18 callgsubr
          23 42 vstem
          -25 callgsubr
          172 -219 rmoveto
          -107 callsubr
          endchar
        </CharString>
        <CharString name="Lslash">
          105 0 80 634 -20 hstem
          186 95 -95 -59 callsubr
          547 hmoveto
          101 -251 258 vlineto
          110 50 -37 81 -73 -33 rlineto
          243 -110 -293 vlineto
          -108 -49 36 -81 72 32 rlineto
          -309 vlineto
          endchar
        </CharString>
        <CharString name="M">
          213 0 237 -216 -21 369 331 -18 callgsubr
          316 -59 callsubr
          614 hmoveto
          700 -110 vlineto
          -159 -463 -157 463 rlineto
          -74 callgsubr
          369 hlineto
          115 -369 rlineto
          84 hlineto
          26 callgsubr
        </CharString>
        <CharString name="Mu">
          206 0 114 -114 237 132 331 -165 165 -106 120 hstemhm
          72 56 -48 110 316 110 -64 56 93 90 hintmask 0100110101000000
          616 hmoveto
          hintmask 0101010101000000
          700 -110 vlineto
          -159 -463 rlineto
          hintmask 1001001011000000
          -157 463 rlineto
          -74 callgsubr
          hlineto
          hintmask 1010001011000000
          369 vlineto
          115 -369 rlineto
          84 hlineto
          hintmask 0100110101000000
          26 callgsubr
        </CharString>
        <CharString name="N">
          -23 callsubr
          -18 callgsubr
          271 111 vstem
          -84 callsubr
          endchar
        </CharString>
        <CharString name="Nacute">
          -23 callsubr
          30 143 -18 callgsubr
          94 109 68 111 vstem
          -84 callsubr
          -108 730 -66 callgsubr
          endchar
        </CharString>
        <CharString name="Ncaron">
          -23 callsubr
          78 47 -56 callsubr
          -37 300 8 111 hintmask 11101100
          570 hmoveto
          700 -111 -470 vlineto
          hintmask 11110100
          -271 470 rlineto
          -74 callgsubr
          473 hlineto
          271 -473 rlineto
          15 875 -103 callsubr
        </CharString>
        <CharString name="Ncommaaccent">
          169 -130 111 19 230 243 227 -18 callgsubr
          87 42 142 111 vstem
          -84 callsubr
          -145 -214 rmoveto
          -107 callsubr
          endchar
        </CharString>
        <CharString name="Ntilde">
          -23 callsubr
          33 65 -30 36 -56 callsubr
          -30 351 -50 111 hintmask 11011010
          -84 callsubr
          8 845 rmoveto
          hintmask 11100100
          -102 callgsubr
        </CharString>
        <CharString name="Nu">
          162 0 135 -135 230 243 227 -127 141 -117 103 hstemhm
          80 110 -109 90 290 111 -12 90 hintmask 0101001100000000
          572 hmoveto
          hintmask 0100101100000000
          700 -111 -470 vlineto
          hintmask 1000110010000000
          -271 470 rlineto
          -74 callgsubr
          hlineto
          hintmask 1010010010000000
          473 vlineto
          hintmask 0101001100000000
          271 -473 rlineto
          endchar
        </CharString>
        <CharString name="O">
          -47 callsubr
          hstemhm
          63 110 197 -52 callgsubr
          hintmask 11110000
          -103 callgsubr
          hintmask 11101000
          -97 callsubr
          endchar
        </CharString>
        <CharString name="OE">
          280 0 42 -42 100 490 110 -103 119 -68 52 -56 callsubr
          -98 56 239 -52 callgsubr
          -44 56 hintmask 0100101001000000
          720 hmoveto
          100 vlineto
          hintmask 0110001100000000
          -222 74 hlineto
          11 vlineto
          123 -5 callgsubr
          93 hlineto
          9 vlineto
          75 -28 callgsubr
          vlineto
          hintmask 1000101010000000
          -334 -2 hlineto
          hintmask 1001001001000000
          12 -28 -33 6 -37 hhcurveto
          hintmask 1000110001000000
          -69 callgsubr
          vhcurveto
          hintmask 0100101010000000
          33 35 6 12 31 hvcurveto
          -7 vlineto
          201 vmoveto
          -59 -2 -36 -41 -62 hhcurveto
          hintmask 1001010001000000
          -15 callsubr
          76 12 50 88 vhcurveto
          hintmask 1000101010000000
          89 11 -53 -74 hvcurveto
          endchar
        </CharString>
        <CharString name="Oacute">
          -47 callsubr
          14 -27 callgsubr
          63 110 88 109 0 -52 callgsubr
          hintmask 11110100
          -103 callgsubr
          hintmask 11111010
          -97 callsubr
          -43 260 -78 callsubr
          hintmask 11110100
          -106 callgsubr
          -65 callgsubr
          rcurveline
          endchar
        </CharString>
        <CharString name="Ocircumflex">
          -47 callsubr
          14 142 hstemhm
          63 110 197 -52 callgsubr
          hintmask 11111000
          -103 callgsubr
          hintmask 11110100
          -97 callsubr
          47 300 -104 callgsubr
          endchar
        </CharString>
        <CharString name="Odieresis">
          -47 callsubr
          hstemhm
          63 110 197 -52 callgsubr
          hintmask 11110000
          -103 callgsubr
          hintmask 11101000
          -97 callsubr
          -124 305 -107 callgsubr
          endchar
        </CharString>
        <CharString name="Ograve">
          -47 callsubr
          14 -27 callgsubr
          63 110 10 119 68 -52 callgsubr
          hintmask 11111100
          -103 callgsubr
          hintmask 11111010
          -97 callsubr
          -71 262 -97 callgsubr
          endchar
        </CharString>
        <CharString name="Ohungarumlaut">
          -47 callsubr
          18 -27 callgsubr
          63 110 -24 109 32 109 -29 -52 callgsubr
          hintmask 11110010
          -103 callgsubr
          hintmask 11110001
          -97 callsubr
          -14 264 -78 callsubr
          hintmask 11101100
          -106 callgsubr
          -65 callgsubr
          rcurveline
          -68 hmoveto
          -105 callsubr
          endchar
        </CharString>
        <CharString name="Omacron">
          -47 callsubr
          14 91 hstemhm
          63 110 197 -52 callgsubr
          hintmask 11111000
          -103 callgsubr
          hintmask 11110100
          -97 callsubr
          4 260 -50 callsubr
        </CharString>
        <CharString name="Omega">
          150 0 66 573 67 hstem
          469 110 49 81 vstem
          592 -83 callgsubr
          endchar
        </CharString>
        <CharString name="Omegatonos">
          244 0 66 502 26 callsubr
          -73 67 hstemhm
          80 109 -107 109 18 81 273 110 49 81 hintmask 1010101110000000
          686 -83 callgsubr
          hintmask 1100101110000000
          -307 568 -78 callsubr
          hintmask 1001011110000000
          -91 callgsubr
          hintmask 1100101110000000
          16 callsubr
        </CharString>
        <CharString name="Omicron">
          62 -17 80 534 119 -65 80 hstemhm
          54 56 -48 95 -95 110 197 -52 callgsubr
          -63 55 177 95 hintmask 1011001001000000
          482 506 rmoveto
          hintmask 1101000011000000
          129 -74 81 -134 vhcurveto
          hintmask 1010100011000000
          -69 callgsubr
          vhcurveto
          hintmask 1011000101000000
          -60 callgsubr
          hvcurveto
          -110 21 rmoveto
          -62 -36 -43 -64 vhcurveto
          hintmask 1010010011000000
          -15 callsubr
          hintmask 1101000011000000
          76 12 50 88 vhcurveto
          hintmask 1011000101000000
          89 11 -53 -74 hvcurveto
          endchar
        </CharString>
        <CharString name="Omicrontonos">
          173 0 42 526 26 callsubr
          -115 119 hstemhm
          82 109 -104 109 -1 56 -56 110 200 110 -55 55 hintmask 1010010001000000
          615 506 rmoveto
          hintmask 1001010001000000
          129 -74 81 -134 vhcurveto
          hintmask 1010101010000000
          -69 callgsubr
          -60 callgsubr
          vhcurveto
          -110 21 rmoveto
          -62 -36 -43 -64 vhcurveto
          hintmask 1010100101000000
          -15 callsubr
          hintmask 1001010010000000
          76 12 50 88 89 11 -53 -74 vhcurveto
          hintmask 1100010001000000
          -354 98 -78 callsubr
          hintmask 1010101001000000
          -91 callgsubr
          hintmask 1100010001000000
          16 callsubr
        </CharString>
        <CharString name="Oslash">
          80 0 42 164 510 15 -20 hstemhm
          38 456 -408 185 -75 310 -113 113 hintmask 10110000
          195 -114 rmoveto
          38 110 rlineto
          -5 21 22 -2 21 hhcurveto
          hintmask 10101010
          -60 callgsubr
          hvcurveto
          321 vlineto
          58 -15 48 -29 36 vhcurveto
          60 169 rlineto
          -120 hlineto
          -38 -109 rlineto
          hintmask 11010000
          5 -20 -22 3 -24 hhcurveto
          hintmask 10101010
          -128 -84 -68 -141 hvcurveto
          -2 callsubr
          -61 19 -44 30 -31 vhcurveto
          -57 -163 rlineto
          hintmask 10100100
          118 339 rmoveto
          246 vlineto
          76 12 50 88 10 10 -1 -2 8 vhcurveto
          hintmask 11010000
          72 -388 rmoveto
          -62 -36 -43 -64 vhcurveto
          hintmask 10101010
          -9 -9 0 2 -7 hvcurveto
          125 355 rlineto
          endchar
        </CharString>
        <CharString name="Otilde">
          -47 callsubr
          19 18 callgsubr
          63 110 -62 351 -92 -52 callgsubr
          hintmask 11011010
          -103 callgsubr
          hintmask 11011001
          -97 callsubr
          47 377 rmoveto
          hintmask 11100100
          -102 callgsubr
        </CharString>
        <CharString name="P">
          70 0 590 -569 -21 hstemhm
          78 111 -1 0 118 96 hintmask 10011000
          188 300 rmoveto
          -38 callgsubr
          124 -57 113 -149 hvcurveto
          hintmask 01101000
          -228 -700 hlineto
          endchar
        </CharString>
        <CharString name="Phi">
          163 -17 80 588 80 -20 -20 hstemhm
          284 110 268 95 120 95 hintmask 11011100
          394 -35 rmoveto
          50 23 vlineto
          151 37 94 116 hvcurveto
          286 vlineto
          hintmask 10111100
          120 -69 80 -118 -62 -68 -38 -68 -4 vhcurveto
          -504 -18 vlineto
          -76 -2 58 92 hvcurveto
          266 vlineto
          85 25 5 39 15 vhcurveto
          -58 84 rlineto
          -76 -24 -40 -67 -98 vvcurveto
          -292 vlineto
          -116 34 -94 154 vhcurveto
          18 -37 hlineto
          110 123 rmoveto
          444 vlineto
          25 -4 31 49 51 3 -47 -100 vhcurveto
          -203 vlineto
          -92 0 -58 -76 vhcurveto
          endchar
        </CharString>
        <CharString name="Pi">
          100 21 -21 327 80 227 80 0 -20 hstem
          80 110 59 95 56 -59 callsubr
          510 hmoveto
          700 -430 -700 110 590 210 -590 vlineto
          endchar
        </CharString>
        <CharString name="Psi">
          151 472 10 callsubr
          370 hmoveto
          212 23 2 callgsubr
          143 vlineto
          61 1 63 -57 36 vhcurveto
          -100 -42 rlineto
          28 -20 19 3 -86 vvcurveto
          -121 vlineto
          -92 -3 -43 -76 vhcurveto
          -23 392 -109 -392 -19 hlineto
          -76 -3 41 92 hvcurveto
          259 -109 -294 9 callsubr
          -78 131 vhcurveto
          19 hlineto
          1 -212 rlineto
          endchar
        </CharString>
        <CharString name="Q">
          68 -116 108 131 -21 497 117 hstem
          63 110 45 109 46 -59 callsubr
          431 -22 rmoveto
          -44 -21 1 22 -18 hvcurveto
          55 11 80 49 124 vvcurveto
          321 vlineto
          129 -74 81 -134 -128 -84 -68 -141 vhcurveto
          -2 callsubr
          -143 103 -42 70 -8 vhcurveto
          22 -60 50 -51 109 3 rrcurveto
          -44 303 rmoveto
          -22 1 -63 -47 vhcurveto
          -1 17 1 16 22 vvcurveto
          17 -110 -18 vlineto
          -21 -2 -16 3 -18 vhcurveto
          -45 0 73 12 hvcurveto
          319 vlineto
          47 12 47 88 89 11 -62 -32 vhcurveto
          endchar
        </CharString>
        <CharString name="R">
          83 300 400 -56 callsubr
          0 324 hintmask 10100000
          -50 callgsubr
          hintmask 11000000
          -89 callsubr
          endchar
        </CharString>
        <CharString name="Racute">
          83 300 400 30 143 -56 callsubr
          0 324 -281 109 hintmask 11010000
          -50 callgsubr
          hintmask 11101000
          -89 callsubr
          11 430 -66 callgsubr
          endchar
        </CharString>
        <CharString name="Rcaron">
          83 300 400 78 47 -56 callsubr
          -85 300 -215 324 hintmask 11010000
          513 hmoveto
          -78 232 rlineto
          hintmask 11001000
          77 68 0 93 69 vvcurveto
          124 -60 114 -137 vhcurveto
          hintmask 11100000
          -89 callsubr
          137 575 -103 callsubr
        </CharString>
        <CharString name="Rcommaaccent">
          83 -137 111 326 400 -56 callsubr
          0 324 -281 42 hintmask 11010000
          -50 callgsubr
          hintmask 11101000
          -89 callsubr
          -19 -521 rmoveto
          -107 callsubr
          endchar
        </CharString>
        <CharString name="Rho">
          70 0 590 -569 -21 292 80 262 80 -67 53 hstemhm
          70 56 -48 95 15 0 118 96 46 56 11 95 hintmask 0111010111100000
          188 300 rmoveto
          hintmask 1001010111100000
          -38 callgsubr
          hvcurveto
          hintmask 0110110111100000
          124 -57 113 -149 vhcurveto
          hintmask 1100101111100000
          -228 -700 hlineto
          endchar
        </CharString>
        <CharString name="S">
          6 callsubr
          -6 callsubr
          218 35 -35 121 hintmask 11100100
          -76 callsubr
          hintmask 11011000
          -100 callgsubr
          hintmask 11100100
          -9 callsubr
          endchar
        </CharString>
        <CharString name="Sacute">
          6 callsubr
          3 143 -6 callsubr
          70 109 39 35 -35 121 hintmask 11110101
          -76 callsubr
          hintmask 11101110
          -100 callgsubr
          hintmask 11110101
          -9 callsubr
          157 539 -66 callgsubr
          endchar
        </CharString>
        <CharString name="Scaron">
          6 callsubr
          95 47 -6 callsubr
          218 35 -35 121 hintmask 11110010
          -76 callsubr
          hintmask 11101100
          -100 callgsubr
          hintmask 11110010
          -9 callsubr
          288 728 -103 callsubr
        </CharString>
        <CharString name="Scircumflex">
          6 callsubr
          -1 10 callgsubr
          -6 callsubr
          -30 251 -3 35 -35 121 hintmask 1010100010000000
          -76 callsubr
          hintmask 1010010100000000
          -100 callgsubr
          hintmask 1010100010000000
          -9 callsubr
          260 575 rmoveto
          -142 141 -148 -12 callgsubr
          hintmask 1101001000000000
          66 -39 81 83 -18 callsubr
          endchar
        </CharString>
        <CharString name="Scommaaccent">
          80 -134 111 6 80 588 80 -6 callsubr
          50 106 62 35 -35 121 hintmask 11110101
          -76 callsubr
          hintmask 11101110
          -100 callgsubr
          hintmask 11110101
          -9 callsubr
          107 -413 rmoveto
          -107 callsubr
          endchar
        </CharString>
        <CharString name="Sigma">
          104 -5 callsubr
          hstem
          109 568 -559 487 vstem
          401 hmoveto
          78 45 31 75 22 hvcurveto
          -94 51 rlineto
          -47 -16 -17 -9 -49 hhcurveto
          -105 hlineto
          169 286 -137 203 rlineto
          191 hlineto
          34 112 rlineto
          -428 hlineto
          210 -318 -226 -384 rlineto
          endchar
        </CharString>
        <CharString name="T">
          -79 22 callsubr
          hstem
          144 -59 callsubr
          254 -70 callsubr
          endchar
        </CharString>
        <CharString name="Tau">
          38 22 callsubr
          hstem
          222 110 -84 56 14 95 vstem
          332 -70 callsubr
          endchar
        </CharString>
        <CharString name="Tbar">
          -79 22 callsubr
          16 91 hstem
          32 334 -222 -59 callsubr
          254 -70 callsubr
          163 730 -50 callsubr
        </CharString>
        <CharString name="Tcaron">
          -79 22 callsubr
          -32 9 callgsubr
          22 -19 callsubr
          -154 -59 callsubr
          254 -70 callsubr
          201 875 -103 callsubr
        </CharString>
        <CharString name="Tcommaaccent">
          -79 -134 111 44 -21 634 80 hstemhm
          144 42 -42 110 hintmask 11101000
          254 -70 callsubr
          39 -218 rmoveto
          -61 callgsubr
          -9 3 -26 27 -13 vhcurveto
          hintmask 11110000
          22 callgsubr
        </CharString>
        <CharString name="Theta">
          56 -17 80 143 510 -478 80 333 80 hstemhm
          70 56 -49 379 -378 95 -95 210 0 210 -113 113 -63 55 177 95 hintmask 1011100001010000
          498 506 rmoveto
          hintmask 1100010000010000
          129 -74 81 -134 vhcurveto
          hintmask 1011001000110000
          -69 callgsubr
          vhcurveto
          hintmask 1011100010010000
          -60 callgsubr
          hvcurveto
          hintmask 1100010000010000
          -110 21 rmoveto
          hintmask 1011000100110000
          -62 -36 -43 -64 -28 callsubr
          vhcurveto
          104 200 vlineto
          hintmask 1100010000010000
          105 vmoveto
          -200 58 hlineto
          hintmask 1011000100110000
          76 12 50 88 89 11 -53 -74 vhcurveto
          endchar
        </CharString>
        <CharString name="Thorn">
          13 21 -21 116 104 184 105 191 -20 hstem
          78 108 160 10 callsubr
          -10 callgsubr
          19 callsubr
          hvcurveto
          208 -108 -700 vlineto
          191 220 rmoveto
          -13 callsubr
        </CharString>
        <CharString name="U">
          -49 callgsubr
          -2 callgsubr
          201 -59 callsubr
          -106 callsubr
          endchar
        </CharString>
        <CharString name="Uacute">
          -49 callgsubr
          37 143 -2 callgsubr
          68 109 24 -59 callsubr
          -106 callsubr
          -64 30 -66 callgsubr
          endchar
        </CharString>
        <CharString name="Ubreve">
          -49 callgsubr
          143 0 36 -20 hstemhm
          74 110 70 143 -12 110 hintmask 11111010
          -106 callsubr
          hintmask 11111100
          12 141 -98 callsubr
          endchar
        </CharString>
        <CharString name="Ucircumflex">
          -49 callgsubr
          36 10 callgsubr
          -2 callgsubr
          -27 251 -23 -59 callsubr
          -106 callsubr
          44 69 -104 callgsubr
          endchar
        </CharString>
        <CharString name="Udieresis">
          -49 callgsubr
          -2 callgsubr
          201 -59 callsubr
          -106 callsubr
          -124 74 -107 callgsubr
          endchar
        </CharString>
        <CharString name="Ugrave">
          -49 callgsubr
          36 143 -1 143 -2 callgsubr
          19 119 63 110 -77 10 callsubr
          -106 callsubr
          -63 31 -97 callgsubr
          endchar
        </CharString>
        <CharString name="Uhungarumlaut">
          -49 callgsubr
          40 -27 callgsubr
          74 110 -4 109 32 109 -45 110 hintmask 11110010
          -106 callsubr
          5 33 -78 callsubr
          hintmask 11101100
          -106 callgsubr
          -65 callgsubr
          rcurveline
          -68 hmoveto
          -105 callsubr
          endchar
        </CharString>
        <CharString name="Umacron">
          -49 callgsubr
          36 91 -2 callgsubr
          -68 334 -65 -59 callsubr
          -106 callsubr
          6 29 -50 callsubr
        </CharString>
        <CharString name="Uogonek">
          85 -213 50 146 80 651 -20 hstemhm
          74 110 -9 68 142 110 hintmask 11101100
          315 -4 callgsubr
          28 23 33 66 56 rrcurveto
          87 10 84 52 128 vvcurveto
          515 -110 -471 vlineto
          -84 -17 -45 -84 vhcurveto
          hintmask 11110100
          -83 -17 45 84 hvcurveto
          471 -110 -515 vlineto
          -131 88 -51 89 -9 vhcurveto
          -72 -47 -11 -45 -1 -20 -85 callgsubr
          endchar
        </CharString>
        <CharString name="Upsilon">
          75 -45 callsubr
          hstemhm
          60 56 -56 110 108 95 21 110 -57 57 hintmask 11101010
          354 -19 -53 callgsubr
          vlineto
          hintmask 11011100
          17 callgsubr
          hlineto
          -95 callsubr
          -79 -40 -16 -35 -4 vhcurveto
          endchar
        </CharString>
        <CharString name="Upsilon_alt">
          34 184 111 vstem
          295 hmoveto
          -94 callsubr
          endchar
        </CharString>
        <CharString name="Upsilondieresis">
          80 -45 callsubr
          hstemhm
          78 56 -56 110 -28 callgsubr
          -57 57 hintmask 11100100
          372 -19 -53 callgsubr
          vlineto
          hintmask 11011000
          17 callgsubr
          hlineto
          -95 callsubr
          -79 -40 -16 -35 -4 vhcurveto
          -58 710 -107 callgsubr
          endchar
        </CharString>
        <CharString name="Upsilondieresis_alt">
          37 187 111 vstem
          215 773 -107 callgsubr
          -5 -729 rmoveto
          -94 callsubr
          endchar
        </CharString>
        <CharString name="Upsilontonos">
          -13 callgsubr
          54 224 -75 35 93 57 hintmask 1100110110000000
          151 568 -78 callsubr
          hintmask 1011010110000000
          -91 callgsubr
          hintmask 1100110110000000
          -65 callgsubr
          rlineto
          453 -587 -53 callgsubr
          vlineto
          hintmask 1010111010000000
          17 callgsubr
          hlineto
          -95 callsubr
          hintmask 1010110110000000
          -79 -40 -16 -35 -4 vhcurveto
          endchar
        </CharString>
        <CharString name="Upsilontonos_alt">
          -13 callgsubr
          203 35 93 57 hintmask 11001111
          151 568 -78 callsubr
          hintmask 10110111
          -91 callgsubr
          hintmask 11001111
          -65 callgsubr
          rlineto
          461 -568 rmoveto
          -94 callsubr
          endchar
        </CharString>
        <CharString name="Uring">
          -49 callgsubr
          76 29 -2 callgsubr
          70 30 101 -59 callsubr
          -106 callsubr
          -101 39 rmoveto
          -17 -13 13 17 17 13 12 17 -67 callgsubr
        </CharString>
        <CharString name="Utilde">
          -49 callgsubr
          42 18 callgsubr
          74 110 -64 351 -86 110 hintmask 11011010
          -106 callsubr
          44 147 rmoveto
          hintmask 11100100
          -102 callgsubr
        </CharString>
        <CharString name="V">
          114 0 95 -74 -21 714 -20 hstem
          202 227 vstem
          382 hmoveto
          174 700 rlineto
          -127 hlineto
          -112 -484 -115 484 rlineto
          -124 hlineto
          175 -700 rlineto
          endchar
        </CharString>
        <CharString name="W">
          332 0 120 -99 -21 600 114 0 -20 hstem
          78 696 vstem
          640 hmoveto
          134 700 rlineto
          -126 hlineto
          -75 -448 -107 448 rlineto
          -78 hlineto
          -107 -448 -82 448 rlineto
          -121 hlineto
          134 -700 rlineto
          128 hlineto
          87 353 89 -353 rlineto
          endchar
        </CharString>
        <CharString name="X">
          213 -45 callsubr
          hstem
          90 548 vstem
          655 hmoveto
          -222 359 -55 callgsubr
        </CharString>
        <CharString name="Xi">
          145 0 80 515 106 -67 80 103 55 hstemhm
          109 568 -512 56 221 121 hintmask 10111000
          469 308 rmoveto
          105 -264 -105 vlineto
          322 282 rmoveto
          hintmask 11011000
          21 111 rlineto
          -325 hlineto
          -78 -45 -31 -75 -22 hvcurveto
          77 -50 rlineto
          28 10 26 17 53 hhcurveto
          hintmask 10110110
          198 -590 rmoveto
          78 45 31 75 22 hvcurveto
          -92 51 rlineto
          -47 -16 -28 -9 -49 hhcurveto
          -254 hlineto
          -31 -101 rlineto
          endchar
        </CharString>
        <CharString name="Y">
          67 -45 callsubr
          hstem
          48 110 -28 callgsubr
          vstem
          342 -19 -53 callgsubr
          17 callgsubr
          vlineto
          -95 callsubr
          -79 -40 -16 -35 -4 vhcurveto
          endchar
        </CharString>
        <CharString name="Y_alt">
          29 179 111 vstem
          290 hmoveto
          -94 callsubr
          endchar
        </CharString>
        <CharString name="Yacute">
          67 -45 callsubr
          37 143 hstem
          48 110 80 109 35 -59 callsubr
          342 -19 -53 callgsubr
          17 callgsubr
          vlineto
          -95 callsubr
          -79 -40 -16 -35 -4 vhcurveto
          666 vmoveto
          -105 callsubr
          endchar
        </CharString>
        <CharString name="Yacute_alt">
          30 731 -27 callgsubr
          180 111 -87 109 hintmask 10100000
          273 731 -66 callgsubr
          hintmask 01000000
          91 -731 rmoveto
          -94 callsubr
          endchar
        </CharString>
        <CharString name="Ydieresis">
          67 -45 callsubr
          hstem
          48 110 -28 callgsubr
          vstem
          342 -19 -53 callgsubr
          17 callgsubr
          vlineto
          -95 callsubr
          -79 -40 -16 -35 -4 vhcurveto
          -59 710 -107 callgsubr
          endchar
        </CharString>
        <CharString name="Ydieresis_alt">
          19 169 111 vstem
          280 hmoveto
          -94 callsubr
          32 775 -107 callgsubr
          endchar
        </CharString>
        <CharString name="Z">
          69 -5 callsubr
          hstem
          31 487 vstem
          518 -88 callgsubr
          endchar
        </CharString>
        <CharString name="Zacute">
          69 -5 callsubr
          71 -27 callgsubr
          31 487 -310 109 hintmask 11110000
          518 -88 callgsubr
          246 785 -78 callsubr
          hintmask 11101000
          -106 callgsubr
          -65 callgsubr
          rcurveline
          endchar
        </CharString>
        <CharString name="Zcaron">
          69 -5 callsubr
          16 9 callgsubr
          31 487 -398 -19 callsubr
          vstem
          518 -88 callgsubr
          412 923 -103 callsubr
        </CharString>
        <CharString name="Zdotaccent">
          69 -5 callsubr
          -39 104 hstem
          31 487 -296 119 vstem
          518 -88 callgsubr
          257 726 -98 callgsubr
          endchar
        </CharString>
        <CharString name="Zeta">
          123 -5 callsubr
          hstem
          69 568 -559 487 vstem
          565 -88 callgsubr
          endchar
        </CharString>
        <CharString name="_196">
          141 0 65 -44 -21 245 55 322 91 hstemhm
          97 586 -546 386 hintmask 01100100
          hintmask 10011000
          583 -62 callgsubr
        </CharString>
        <CharString name="a">
          -23 -12 14 callsubr
          hintmask 11010000
          422 -79 callsubr
          endchar
        </CharString>
        <CharString name="aacute">
          -29 callsubr
          29 143 -40 callgsubr
          -201 109 -94 callgsubr
          -22 286 -78 callsubr
          hintmask 11100100
          -106 callgsubr
          -65 callgsubr
          rcurveline
          endchar
        </CharString>
        <CharString name="abreve">
          -29 callsubr
          142 0 36 -20 -40 callgsubr
          -184 143 hintmask 11110100
          -32 callsubr
          hintmask 11111000
          -99 callsubr
          hintmask 11110100
          -68 callsubr
          hintmask 11111000
          17 callsubr
          hintmask 11110100
          -78 callgsubr
          hintmask 11111000
          -63 callgsubr
          hintmask 11110010
          69 404 -98 callsubr
          endchar
        </CharString>
        <CharString name="acircumflex">
          -29 callsubr
          28 142 -40 callgsubr
          -94 callgsubr
          73 325 -104 callgsubr
          endchar
        </CharString>
        <CharString name="acute">
          -259 588 143 hstem
          50 10 callsubr
          119 588 -66 callgsubr
          endchar
        </CharString>
        <CharString name="adieresis">
          -29 callsubr
          -40 callgsubr
          hintmask 11010000
          463 -79 callsubr
          -94 331 -107 callgsubr
          endchar
        </CharString>
        <CharString name="ae">
          271 -12 102 87 225 -207 67 16 232 -90 89 -76 76 hstemhm
          78 111 164 110 -110 4 callgsubr
          -179 56 248 56 hintmask 1011001101010000
          713 -16 callsubr
          -52 -44 -14 -26 -32 vhcurveto
          hintmask 1010011110010000
          24 -31 -48 15 -75 hhcurveto
          -9 -76 rlineto
          -99 callsubr
          -205 208 19 157 15 vhcurveto
          24 -8 26 -3 30 1 57 1 61 17 47 29 -40 95 rcurveline
          hintmask 1010101101010000
          -121 -64 -63 18 65 vvcurveto
          hintmask 1100101101010000
          28 vlineto
          -111 -80 rmoveto
          -78 callgsubr
          -63 callgsubr
          hintmask 1011001010010000
          249 35 rmoveto
          hintmask 1011001101010000
          -48 callgsubr
          hintmask 1100101100110000
          25 16 39 56 vhcurveto
          hintmask 1010101010010000
          35 31 -20 -42 hvcurveto
          endchar
        </CharString>
        <CharString name="agrave">
          -29 callsubr
          29 -27 callgsubr
          78 275 -170 119 -113 274 -65 109 hintmask 11100100
          -32 callsubr
          hintmask 11110010
          -99 callsubr
          hintmask 11100100
          -68 callsubr
          hintmask 11110010
          17 callsubr
          hintmask 11100100
          -78 callgsubr
          hintmask 11110010
          -63 callgsubr
          hintmask 11101010
          -51 288 rmoveto
          -46 108 rlineto
          hintmask 11100100
          -14 33 -37 5 -16 -8 -24 -12 -12 -29 27 -34 49 -63 rcurveline
          endchar
        </CharString>
        <CharString name="alpha">
          31 -22 callgsubr
          -63 75 hstem
          333 110 38 85 vstem
          473 35 rmoveto
          -72 callsubr
          endchar
        </CharString>
        <CharString name="alphatonos">
          31 -22 callgsubr
          21 -27 callgsubr
          86 90 65 109 -79 109 -47 110 48 85 hintmask 1111101010000000
          473 35 rmoveto
          hintmask 1111100110000000
          -72 callsubr
          -22 154 -78 callsubr
          hintmask 1111110010000000
          -106 callgsubr
          -65 callgsubr
          rcurveline
          endchar
        </CharString>
        <CharString name="amacron">
          -29 callsubr
          29 91 -40 callgsubr
          -94 callgsubr
          33 286 -50 callsubr
        </CharString>
        <CharString name="ampersand">
          79 -12 75 -42 -21 404 -21 hstem
          36 188 20 -51 callgsubr
          97 vstem
          498 76 rmoveto
          -47 16 -19 42 49 vvcurveto
          187 vlineto
          97 19 -24 111 -73 -16 rlineto
          125 vlineto
          -110 -14 rlineto
          -123 vlineto
          -11 -1 -15 -1 -67 23 15 68 rlinecurve
          9 41 48 11 17 -11 63 97 rcurveline
          -118 41 -135 -67 -123 vvcurveto
          -61 30 -56 45 -20 vhcurveto
          -30 -9 -124 -60 -13 -140 rrcurveto
          -111 -10 62 -104 125 hhcurveto
          80 44 37 16 13 hvcurveto
          40 -46 63 -8 29 1 rrcurveto
          -160 234 rmoveto
          -54 -29 -68 -69 -63 -28 53 55 10 vhcurveto
          16 88 94 31 69 17 rrcurveto
          endchar
        </CharString>
        <CharString name="aogonek">
          11 -213 50 151 14 callsubr
          -155 68 hintmask 11100100
          407 -110 -79 callgsubr
          hintmask 11101000
          1 298 hlineto
          -86 callgsubr
          -179 158 -8 145 11 vhcurveto
          -70 -47 -10 -44 -1 -19 -85 callgsubr
          -144 260 rmoveto
          hintmask 11101000
          -78 callgsubr
          hintmask 11110000
          -63 callgsubr
          endchar
        </CharString>
        <CharString name="aring">
          21 -3 callsubr
          107 0 29 -40 callgsubr
          -232 30 hintmask 11001000
          24 callgsubr
          76 0 89 -105 33 vhcurveto
          6 13 4 15 16 vvcurveto
          hintmask 11000100
          59 -48 48 -59 -59 -48 -48 -59 -54 40 -45 52 -7 vhcurveto
          -1 vlineto
          hintmask 11010000
          -99 callsubr
          hintmask 11001000
          -68 callsubr
          hintmask 11010000
          17 callsubr
          hintmask 11001000
          -78 callgsubr
          hintmask 11010000
          -63 callgsubr
          hintmask 10100100
          -92 258 -16 callgsubr
        </CharString>
        <CharString name="asciicircum">
          -74 264 433 hstem
          78 290 vstem
          368 758 -104 callgsubr
          endchar
        </CharString>
        <CharString name="asciitilde">
          58 183 98 16 81 hstem
          82 401 vstem
          456 379 rmoveto
          -97 -116 -162 204 -119 -148 42 -70 rcurveline
          107 122 157 -213 116 150 rrcurveto
          endchar
        </CharString>
        <CharString name="asterisk">
          -129 714 -20 hstem
          115 120 vstem
          314 465 rmoveto
          -95 75 121 10 -45 106 -94 -69 34 113 rlineto
          -120 hlineto
          33 -113 -96 67 -39 -103 117 -10 -92 -74 98 -71 39 119 37 -119 rlineto
          endchar
        </CharString>
        <CharString name="at">
          288 -17 55 93 68 -66 55 317 68 103 55 hstem
          46 68 75 75 196 87 142 68 vstem
          610 162 rmoveto
          -116 1 -151 -40 -111 hhcurveto
          -105 -130 36 148 hvcurveto
          140 vlineto
          124 100 55 124 -4 vhcurveto
          35 -1 57 -17 7 -49 -33 13 -85 24 -69 -26 rrcurveto
          -56 -21 -32 -40 -83 vvcurveto
          -101 vlineto
          13 -197 202 31 170 53 rrcurveto
          203 vlineto
          37 -15 rlineto
          105 vlineto
          -37 15 rlineto
          172 -169 53 -149 -29 vhcurveto
          -104 -20 -112 -76 -157 vvcurveto
          -159 vlineto
          -177 147 -98 183 142 229 48 222 vhcurveto
          158 vlineto
          32 0 31 43 16 vhcurveto
          -34 90 rlineto
          -114 -21 0 -83 -68 vvcurveto
          -172 -166 rmoveto
          -168 -56 -5 88 42 vvcurveto
          55 vlineto
          84 108 -15 65 -34 vhcurveto
          endchar
        </CharString>
        <CharString name="atilde">
          -29 callsubr
          36 18 callgsubr
          78 275 -250 351 -265 274 hintmask 11010010
          -32 callsubr
          hintmask 11011000
          -99 callsubr
          hintmask 11010010
          -68 callsubr
          hintmask 11011000
          17 callsubr
          hintmask 11010010
          -78 callgsubr
          hintmask 11011000
          -63 callgsubr
          59 405 rmoveto
          hintmask 11100100
          -102 callgsubr
        </CharString>
        <CharString name="b">
          5 700 -20 -18 callgsubr
          150 10 callsubr
          447 346 rmoveto
          76 -35 45 -50 23 vhcurveto
          -66 31 -66 -12 -42 -9 rrcurveto
          200 -60 callsubr
          vlineto
          125 -11 77 -16 89 45 rrcurveto
          45 23 33 44 72 vvcurveto
          -109 -2 rmoveto
          -65 -113 -6 -37 12 vhcurveto
          286 vlineto
          25 21 125 21 -109 vvcurveto
          endchar
        </CharString>
        <CharString name="backslash">
          80 4 -21 748 -20 hstemhm
          50 274 -218 456 hintmask 11100000
          522 -114 rmoveto
          -324 931 rlineto
          -120 hlineto
          hintmask 01010000
          327 -931 rlineto
          endchar
        </CharString>
        <CharString name="bar">
          -213 -214 1000 8 callsubr
          188 -114 rmoveto
          931 -110 -931 vlineto
          endchar
        </CharString>
        <CharString name="beta">
          6 -12 75 -60 -21 377 68 229 75 hstemhm
          77 109 230 90 -58 90 hintmask 10111100
          186 -161 rmoveto
          hintmask 01111100
          143 vlineto
          hintmask 10111010
          87 175 -13 177 hvcurveto
          184 vlineto
          93 -55 45 -47 17 vhcurveto
          70 79 -58 146 -133 hhcurveto
          -98 -58 -66 -98 hvcurveto
          -698 vlineto
          261 363 rmoveto
          -119 -54 2 -99 16 vhcurveto
          274 vlineto
          84 37 69 -5 -111 vvcurveto
          -153 228 rmoveto
          37 0 29 47 43 22 -65 -21 -64 vhcurveto
          -28 -9 13 6 -33 -15 rrcurveto
          endchar
        </CharString>
        <CharString name="braceleft">
          -118 -116 99 249 68 430 92 hstemhm
          78 124 -50 110 31 31 hintmask 11101100
          324 -17 rmoveto
          -40 -22 25 79 hvcurveto
          166 vlineto
          hintmask 11110100
          41 -44 45 -16 16 vhcurveto
          16 16 42 45 40 vvcurveto
          169 vlineto
          79 31 26 31 vhcurveto
          -29 92 rlineto
          -110 -16 -33 -75 -164 vvcurveto
          -105 vlineto
          -41 -49 -49 -23 -18 vhcurveto
          hintmask 11101100
          23 -21 51 -44 -42 vvcurveto
          -127 vlineto
          -165 38 -42 103 -29 vhcurveto
          endchar
        </CharString>
        <CharString name="braceright">
          -118 -116 37 -37 99 249 68 -47 203 274 92 -37 37 hstemhm
          46 60 -28 31 31 110 -50 124 hintmask 0110010110000000
          109 -116 rmoveto
          103 29 38 42 165 vvcurveto
          127 vlineto
          hintmask 1010101001000000
          42 51 44 23 21 vhcurveto
          -23 18 -49 49 41 vvcurveto
          105 vlineto
          hintmask 1010100101000000
          164 -33 75 -110 16 vhcurveto
          -29 -92 rlineto
          31 31 -26 -79 hvcurveto
          hintmask 1001011001000000
          -169 vlineto
          -40 42 -45 16 -16 vhcurveto
          hintmask 0101011010000000
          -16 -16 -44 -45 -41 vvcurveto
          -166 vlineto
          hintmask 0110010101000000
          -79 -22 -25 -40 vhcurveto
          endchar
        </CharString>
        <CharString name="bracketleft">
          -162 -198 68 793 68 8 callsubr
          239 -114 rmoveto
          105 vlineto
          -51 10 rlineto
          701 vlineto
          51 10 rlineto
          105 -161 -931 vlineto
          endchar
        </CharString>
        <CharString name="bracketright">
          -162 -198 68 793 68 hstem
          129 110 -48 56 vstem
          239 -114 rmoveto
          931 -161 -105 vlineto
          51 -10 rlineto
          -701 vlineto
          -51 -10 rlineto
          -105 vlineto
          endchar
        </CharString>
        <CharString name="breve">
          -171 582 78 71 -20 hstem
          46 226 vstem
          272 700 -98 callsubr
          endchar
        </CharString>
        <CharString name="bullet">
          -7 178 357 hstem
          78 357 vstem
          256 158 rmoveto
          99 80 80 99 99 -80 79 -99 -99 -79 -79 -99 -99 79 -80 99 hvcurveto
          endchar
        </CharString>
        <CharString name="c">
          -98 7 callsubr
          hstem
          36 -59 callsubr
          328 114 rmoveto
          -99 callgsubr
          61 -19 78 4 71 19 rrcurveto
          endchar
        </CharString>
        <CharString name="cacute">
          -42 7 callsubr
          9 143 -18 callgsubr
          25 10 callsubr
          370 114 rmoveto
          -99 callgsubr
          61 -19 78 4 71 19 rrcurveto
          -118 532 -66 callgsubr
          endchar
        </CharString>
        <CharString name="caron">
          -107 537 9 callgsubr
          13 -19 callsubr
          vstem
          336 730 -103 callsubr
        </CharString>
        <CharString name="ccaron">
          -41 7 callsubr
          58 47 -56 callsubr
          -85 251 hintmask 11101000
          370 114 rmoveto
          hintmask 11110000
          -99 callgsubr
          61 -19 78 4 71 19 rrcurveto
          1 678 -103 callsubr
        </CharString>
        <CharString name="ccedilla">
          -98 23 callsubr
          36 51 421 69 hstem
          36 110 92 93 vstem
          89 -74 callsubr
          19 28 42 -1 44 6 42 11 rlinecurve
          -30 108 rlineto
          -99 callgsubr
          6 -2 6 -1 6 -2 -59 -75 rcurveline
          -71 callsubr
        </CharString>
        <CharString name="ccircumflex">
          -39 7 callsubr
          9 142 -56 callsubr
          -57 251 hintmask 11101000
          370 114 rmoveto
          hintmask 11110000
          -99 callgsubr
          61 -19 78 4 71 19 rrcurveto
          3 572 -104 callgsubr
          endchar
        </CharString>
        <CharString name="cdotaccent">
          -42 7 callsubr
          -42 104 -18 callgsubr
          11 119 vstem
          370 114 rmoveto
          -99 callgsubr
          61 -19 78 4 71 19 rrcurveto
          -135 532 -98 callgsubr
          endchar
        </CharString>
        <CharString name="cedilla">
          -215 23 callsubr
          hstem
          216 93 vstem
          67 -74 callsubr
          27 38 rlineto
          -70 hlineto
          -61 -78 -71 callsubr
        </CharString>
        <CharString name="cent">
          -42 -12 75 391 75 hstemhm
          78 141 -131 90 41 109 -14 39 hintmask 11011000
          328 -114 rmoveto
          107 vlineto
          24 2 24 5 24 6 -30 108 rcurveline
          -9 -4 -15 -4 -18 -3 rrcurveto
          293 vlineto
          12 -3 14 -5 14 -5 30 95 rcurveline
          -24 11 -23 8 -23 5 rrcurveto
          121 -109 -118 vlineto
          hintmask 11100100
          -81 -16 -60 -64 -117 vvcurveto
          -128 vlineto
          -101 33 -51 79 -26 vhcurveto
          9 -3 10 -2 10 -2 rrcurveto
          -109 vlineto
          hintmask 11011000
          227 vmoveto
          -19 10 -12 18 28 vvcurveto
          145 vlineto
          28 10 24 21 16 vhcurveto
          endchar
        </CharString>
        <CharString name="chi">
          169 20 callgsubr
          153 500 vstem
          611 -26 callgsubr
          -87 181 rlineto
          -119 hlineto
          148 -293 -17 callgsubr
          endchar
        </CharString>
        <CharString name="circumflex">
          -107 588 10 callgsubr
          hstem
          64 251 vstem
          336 628 -104 callgsubr
          endchar
        </CharString>
        <CharString name="colon">
          -345 0 111 295 111 hstemhm
          15 108 -104 100 hintmask 11010000
          69 310 rmoveto
          hintmask 11100000
          -42 callsubr
          55 -145 rmoveto
          31 -25 25 -31 -30 -25 -25 -31 -30 25 -25 30 31 25 25 30 vhcurveto
          endchar
        </CharString>
        <CharString name="comma">
          -303 0 111 hstem
          31 106 vstem
          70 -84 rmoveto
          -107 callsubr
          endchar
        </CharString>
        <CharString name="copyright">
          319 -17 55 90 55 347 55 91 55 hstem
          24 68 99 68 449 68 vstem
          401 -127 -77 callgsubr
          91 195 rmoveto
          -28 -44 -21 -46 -72 -34 57 65 61 29 58 76 46 38 -22 -22 7 vhcurveto
          106 hlineto
          94 -16 -84 61 -95 hhcurveto
          -137 -75 -110 -121 -131 79 -100 135 92 81 62 97 21 hvcurveto
          endchar
        </CharString>
        <CharString name="currency">
          26 101 75 348 75 hstem
          25 85 330 85 vstem
          390 126 rmoveto
          74 77 -35 33 rlineto
          11 32 10 14 41 vvcurveto
          40 -10 15 -11 29 vhcurveto
          39 33 -79 78 -38 -38 rlineto
          11 -11 -26 8 -40 hhcurveto
          -41 -23 -9 -10 -16 hvcurveto
          -33 37 -83 -77 40 -38 rlineto
          -8 -18 -11 -22 -39 vvcurveto
          -40 11 -33 11 -15 vhcurveto
          -36 -33 75 -77 37 41 rlineto
          -12 21 20 -6 36 hhcurveto
          40 18 8 10 19 hvcurveto
          -4 157 rmoveto
          -40 -33 -32 -40 -41 -33 32 40 41 33 33 41 40 33 -33 -41 vhcurveto
          endchar
        </CharString>
        <CharString name="d">
          5 1 callgsubr
          0 109 hintmask 10111000
          25 callsubr
          hintmask 01110100
          -21 callsubr
          hintmask 10111000
          -50 -23 -35 -45 -76 vvcurveto
          260 -249 -37 callgsubr
          endchar
        </CharString>
        <CharString name="dcaron">
          169 -11 50 -39 63 396 50 99 111 -5 -20 hstemhm
          78 260 0 109 58 42 hintmask 10101101
          25 callsubr
          hintmask 01101011
          -21 callsubr
          hintmask 10101101
          -50 -23 -35 -45 -76 vvcurveto
          260 -249 -37 callgsubr
          206 142 rmoveto
          -61 callgsubr
          hintmask 10110101
          -6 callgsubr
        </CharString>
        <CharString name="dcroat">
          67 1 callgsubr
          -63 234 -171 109 hintmask 10110100
          509 536 rmoveto
          105 vlineto
          hintmask 10110010
          -62 59 -109 -59 hlineto
          hintmask 10110100
          -63 -105 hlineto
          hintmask 10111000
          63 -38 hlineto
          -31 11 -78 12 -66 -31 rrcurveto
          -50 -23 -35 -45 -76 vvcurveto
          -189 vlineto
          -72 33 -44 45 -23 vhcurveto
          hintmask 01110010
          89 -45 77 16 125 11 rrcurveto
          536 vlineto
          hintmask 10110100
          hintmask 10111000
          -109 -439 -37 callgsubr
          endchar
        </CharString>
        <CharString name="degree">
          -76 421 195 -102 195 hstemhm
          78 195 -102 195 hintmask 10010000
          222 421 rmoveto
          80 64 64 80 hvcurveto
          hintmask 01100000
          80 -64 64 -80 -80 -64 -64 -80 vhcurveto
          hintmask 10100000
          -80 64 -64 80 vhcurveto
          51 144 rmoveto
          hintmask 01010000
          -26 -19 -25 -32 -32 -19 25 26 vhcurveto
          hintmask 10100000
          25 19 26 32 32 19 -26 -25 vhcurveto
          endchar
        </CharString>
        <CharString name="delta">
          -12 75 754 55 hstem
          127 341 -125 109 7 90 vstem
          451 288 rmoveto
          119 -75 47 -97 70 vhcurveto
          40 -56 35 26 26 hhcurveto
          43 hlineto
          21 115 rlineto
          -55 hlineto
          -173 -24 -152 -67 70 hvcurveto
          -39 -17 -49 -52 -107 vvcurveto
          -126 9 callsubr
          -78 131 132 53 74 120 vhcurveto
          -109 -6 rmoveto
          -68 -48 -13 -28 -34 -45 23 58 vhcurveto
          109 vlineto
          42 -15 71 83 7 vhcurveto
          93 -52 -6 -71 -28 vvcurveto
          endchar
        </CharString>
        <CharString name="dieresis">
          -259 664 89 1 -20 hstemhm
          0 89 43 90 hintmask 10110000
          89 708 rmoveto
          25 -20 20 -25 -24 -20 -20 -25 -24 20 -20 24 25 20 20 24 vhcurveto
          88 -44 rmoveto
          25 20 20 25 hvcurveto
          hintmask 01110000
          -92 callgsubr
          vhcurveto
          hintmask 10110000
          -52 callsubr
          vhcurveto
          endchar
        </CharString>
        <CharString name="dieresistonos">
          -142 592 104 35 -27 callgsubr
          50 90 15 109 -26 90 hintmask 10101000
          111 664 rmoveto
          -8 callsubr
          156 hmoveto
          -8 callsubr
          hintmask 01010000
          -43 67 -66 callgsubr
          endchar
        </CharString>
        <CharString name="divide">
          -44 4 -21 236 68 236 -20 hstem
          171 128 vstem
          398 339 rmoveto
          89 -320 -89 vlineto
          163 108 rmoveto
          -42 callsubr
          -239 vmoveto
          -42 callsubr
          endchar
        </CharString>
        <CharString name="dollar">
          59 -17 80 115 155 397 -20 hstemhm
          34 118 -101 119 -118 58 105 110 -82 56 26 184 -121 35 -17 17 26 60 hintmask 1110010110000000
          325 -114 rmoveto
          107 vlineto
          131 18 53 86 97 vvcurveto
          128 -95 59 -89 42 vhcurveto
          170 vlineto
          hintmask 1110010101010000
          21 -4 20 -6 22 -7 rrcurveto
          12 36 23 67 1 vvcurveto
          hintmask 1110011000110000
          -30 14 -28 10 -40 4 rrcurveto
          109 -110 -112 vlineto
          hintmask 1110100100110000
          -112 -21 -52 -75 -72 vvcurveto
          hintmask 1110011000110000
          -111 81 -40 83 -35 vhcurveto
          -244 vlineto
          hintmask 1111000100110000
          -37 15 -22 32 -4 41 -118 -17 rcurveline
          hintmask 1110011001010000
          2 -78 60 -86 119 -20 rrcurveto
          -108 vlineto
          110 411 rmoveto
          37 -25 26 -34 -54 vvcurveto
          -26 -17 -36 -46 -17 vhcurveto
          -110 370 rmoveto
          hintmask 1110100100110000
          -26 15 -17 16 -2 21 rrcurveto
          hintmask 1110011000110000
          -3 26 13 23 35 13 rrcurveto
          endchar
        </CharString>
        <CharString name="dotaccent">
          -363 592 104 hstem
          -6 119 vstem
          60 643 -98 callgsubr
          endchar
        </CharString>
        <CharString name="dotlessi">
          -297 21 -66 callsubr
          113 104 hstem
          36 110 -82 56 vstem
          146 hmoveto
          -63 callsubr
          endchar
        </CharString>
        <CharString name="dotlessj">
          -181 -209 16 callgsubr
          hstem
          151 -59 callsubr
          151 -35 -64 callgsubr
          endchar
        </CharString>
        <CharString name="e">
          -47 -89 callgsubr
          endchar
        </CharString>
        <CharString name="eacute">
          -4 -69 callsubr
          28 -27 callgsubr
          78 4 callgsubr
          -194 109 hintmask 10110100
          438 -81 callsubr
          hintmask 11010100
          -38 callsubr
          hintmask 10110100
          -48 callgsubr
          hintmask 11011000
          -21 callgsubr
          -14 198 -78 callsubr
          hintmask 11010010
          -106 callgsubr
          -65 callgsubr
          rcurveline
          endchar
        </CharString>
        <CharString name="ecaron">
          -4 -69 callsubr
          77 47 hstemhm
          78 249 -243 300 -195 249 hintmask 10110010
          438 -96 callsubr
          80 344 -103 callsubr
        </CharString>
        <CharString name="ecircumflex">
          -4 -69 callsubr
          27 142 hstemhm
          78 249 -181 251 -208 249 hintmask 10110010
          438 -96 callsubr
          91 237 -104 callgsubr
          endchar
        </CharString>
        <CharString name="edieresis">
          56 -89 callgsubr
          -90 243 -107 callgsubr
          endchar
        </CharString>
        <CharString name="edotaccent">
          -4 -69 callsubr
          -23 104 hstemhm
          78 4 callgsubr
          -240 119 hintmask 11010100
          438 -43 callsubr
          hintmask 10100010
          -33 callgsubr
          vhcurveto
          hintmask 11011000
          -96 callgsubr
          hintmask 11010100
          -68 callgsubr
          hintmask 11011000
          138 110 rmoveto
          hintmask 10100100
          -48 callgsubr
          hintmask 11010010
          25 16 39 56 vhcurveto
          hintmask 11011000
          35 31 -20 -42 hvcurveto
          -63 198 -98 callgsubr
          endchar
        </CharString>
        <CharString name="egrave">
          -4 -69 callsubr
          28 -27 callgsubr
          78 249 -152 119 -105 249 -48 109 hintmask 10110010
          438 15 callgsubr
          hintmask 11011001
          -96 callgsubr
          hintmask 11010010
          -68 callgsubr
          hintmask 10111001
          138 110 rmoveto
          hintmask 10110010
          -48 callgsubr
          hintmask 11011001
          -21 callgsubr
          hintmask 11010101
          -33 200 -97 callgsubr
          endchar
        </CharString>
        <CharString name="eight">
          -30 -12 75 243 162 -66 -21 253 75 hstemhm
          13 316 -277 71 101 179 -176 212 hintmask 10111000
          329 201 rmoveto
          -58 -45 -45 -58 vhcurveto
          hintmask 10110110
          -58 -45 45 58 hvcurveto
          hintmask 11010110
          57 44 48 57 vhcurveto
          hintmask 10111000
          65 40 -48 -57 hvcurveto
          -3 187 rmoveto
          hintmask 10110110
          47 31 30 53 61 vvcurveto
          hintmask 10110101
          98 -78 78 -98 -97 -78 -78 -98 -60 29 -53 46 -31 vhcurveto
          hintmask 10111000
          -68 -35 -46 -71 -82 vvcurveto
          -118 95 -95 118 vhcurveto
          hintmask 10110101
          118 95 95 118 81 -46 70 -67 36 hvcurveto
          hintmask 11010110
          -102 80 rmoveto
          -36 -29 30 35 hvcurveto
          hintmask 10110101
          37 31 31 37 36 30 -31 -37 vhcurveto
          hintmask 11010110
          -36 -30 -29 -39 vhcurveto
          endchar
        </CharString>
        <CharString name="ellipsis">
          23 0 111 hstemhm
          1 101 -85 66 114 66 -31 0 145 66 -31 0 hintmask 11010100
          102 50 rmoveto
          -82 callsubr
          181 hmoveto
          hintmask 10101100
          -82 callsubr
          180 hmoveto
          hintmask 10110010
          -82 callsubr
          endchar
        </CharString>
        <CharString name="emacron">
          56 -69 callsubr
          28 91 hstemhm
          35 249 -233 333 -238 249 hintmask 10110010
          395 -96 callsubr
          41 198 12 callsubr
        </CharString>
        <CharString name="eng">
          19 -209 86 144 -21 454 75 -12 -20 157 67 hstemhm
          64 98 162 109 -26 85 hintmask 11101110
          324 -39 rmoveto
          -84 -84 0 0 vhcurveto
          0 25 -85 -1 vvcurveto
          73 95 49 87 hvcurveto
          419 vlineto
          76 -35 46 -50 23 vhcurveto
          hintmask 11011101
          -68 32 -87 -18 -20 -8 -11 4 rcurveline
          -98 -501 109 386 hlineto
          hintmask 11101110
          41 19 110 25 -104 vvcurveto
          endchar
        </CharString>
        <CharString name="eogonek">
          -47 -213 50 151 51 138 225 -124 232 hstemhm
          35 249 -166 68 -40 249 hintmask 11100100
          258 -4 callgsubr
          27 22 34 65 55 38 7 36 14 31 19 -40 95 rcurveline
          hintmask 11100010
          -68 callgsubr
          249 13 rlineto
          152 vlineto
          hintmask 11010100
          -33 callgsubr
          vhcurveto
          hintmask 11011000
          -109 -75 -61 -110 hvcurveto
          -205 vlineto
          -97 61 -45 88 -4 vhcurveto
          -63 -44 -10 -42 -1 -19 -85 callgsubr
          -23 450 rmoveto
          hintmask 11010010
          -48 callgsubr
          hintmask 11100100
          25 16 39 56 vhcurveto
          hintmask 11101000
          35 31 -20 -42 hvcurveto
          endchar
        </CharString>
        <CharString name="epsilon">
          -19 -12 75 273 68 230 75 hstemhm
          68 85 -74 109 240 90 hintmask 11101100
          390 129 rmoveto
          0 -42 -26 -69 -1 vhcurveto
          hintmask 11110100
          -76 callgsubr
        </CharString>
        <CharString name="epsilontonos">
          -19 -12 75 273 68 134 143 -47 75 hstemhm
          58 85 -64 109 41 109 80 90 hintmask 11101011
          298 538 -66 callgsubr
          165 -409 rmoveto
          0 -42 -26 -69 -1 vhcurveto
          hintmask 11010111
          -76 callgsubr
        </CharString>
        <CharString name="equal">
          -136 134 80 73 80 hstem
          13 320 vstem
          333 357 6 callgsubr
          320 -153 6 callgsubr
          endchar
        </CharString>
        <CharString name="eta">
          5 21 -21 454 75 -12 -20 hstemhm
          338 109 -26 85 hintmask 11010000
          447 -210 rmoveto
          556 vlineto
          76 -35 46 -50 23 vhcurveto
          hintmask 10101000
          -7 callsubr
          hintmask 11010000
          21 callsubr
        </CharString>
        <CharString name="etatonos">
          5 21 -21 454 75 -12 -20 41 -27 callgsubr
          87 85 72 109 -100 109 -24 109 -17 85 hintmask 1101110010000000
          322 -35 callgsubr
          hintmask 1101101010000000
          -106 callgsubr
          -65 callgsubr
          rcurveline
          hintmask 1101100100000000
          198 -748 rmoveto
          556 vlineto
          hintmask 1101101010000000
          76 -35 46 -50 23 vhcurveto
          hintmask 1011110010000000
          -7 callsubr
          hintmask 1101100100000000
          21 callsubr
        </CharString>
        <CharString name="exclam">
          -207 0 127 hstemhm
          78 116 -97 76 hintmask 10100000
          173 120 rmoveto
          hintmask 11000000
          21 522 rlineto
          24 -3 44 -57 -51 -5 -44 -25 vhcurveto
          hintmask 10100000
          19 -521 rlineto
          90 -70 rmoveto
          -82 callsubr
          endchar
        </CharString>
        <CharString name="exclamdown">
          -207 -177 -21 198 127 279 111 hstem
          101 67 -57 47 vstem
          78 69 rmoveto
          -25 5 -44 51 57 3 44 24 vhcurveto
          -21 522 rlineto
          -76 hlineto
          39 19 rmoveto
          28 23 23 28 27 -23 23 -28 -27 -23 -23 -27 -28 23 -23 27 hvcurveto
          endchar
        </CharString>
        <CharString name="f">
          -156 21 -21 398 103 106 100 hstem
          78 112 vstem
          190 hmoveto
          -31 callgsubr
          74 62 -8 16 -8 vhcurveto
          18 100 rlineto
          -83 15 -125 -15 -158 vvcurveto
          -549 vlineto
          endchar
        </CharString>
        <CharString name="f_f">
          93 21 -21 448 53 157 49 hstem
          100 56 179 56 vstem
          425 hmoveto
          -15 callgsubr
          33 hlineto
          71 54 -3 28 -12 vhcurveto
          28 101 -61 18 -49 -3 -37 -20 rlinecurve
          -226 57 -84 -106 -136 vvcurveto
          -501 112 -15 callgsubr
          33 hlineto
          68 101 6 28 -25 vhcurveto
          -4 -20 -2 -22 -24 vvcurveto
          -517 vlineto
          endchar
        </CharString>
        <CharString name="f_f_l">
          205 21 -21 hstem
          563 56 vstem
          647 hmoveto
          686 vlineto
          -67 15 -117 24 -75 -39 -194 49 -89 -71 -22 -107 rrcurveto
          -4 -18 -1 -19 -19 vvcurveto
          -501 -7 callgsubr
          101 6 28 -25 vhcurveto
          -4 -20 -2 -22 -24 vvcurveto
          -517 -7 callgsubr
          78 0 32 -11 vhcurveto
          -591 vlineto
          endchar
        </CharString>
        <CharString name="f_i">
          -27 21 -21 398 103 16 -20 113 104 -56 callsubr
          117 110 hintmask 11011100
          415 hmoveto
          501 -109 -501 vlineto
          -116 hmoveto
          -31 callgsubr
          74 98 -1 17 -32 vhcurveto
          87 78 rlineto
          hintmask 10111100
          -161 100 -153 -86 -165 vvcurveto
          -517 vlineto
          endchar
        </CharString>
        <CharString name="f_l">
          -27 21 -21 442 75 130 75 -8 -20 hstem
          141 85 181 85 vstem
          415 hmoveto
          686 vlineto
          -33 callsubr
          -593 vlineto
          endchar
        </CharString>
        <CharString name="f_t">
          68 8 -21 34 -21 75 -20 343 103 hstemhm
          78 112 113 112 hintmask 01111100
          488 75 rmoveto
          -45 callgsubr
          185 hlineto
          -33 callsubr
          -461 vlineto
          hintmask 10111100
          -78 33 -65 119 -2 vhcurveto
          endchar
        </CharString>
        <CharString name="five">
          -66 -12 75 329 75 155 75 hstem
          13 68 212 -17 callsubr
          -95 94 -118 hvcurveto
          -25 hlineto
          19 176 rlineto
          163 111 -266 hlineto
          -43 -392 rlineto
          111 hlineto
          87 57 -39 -68 -51 -25 -53 -78 -52 -26 23 42 -31 hvcurveto
          endchar
        </CharString>
        <CharString name="four">
          37 21 -21 166 75 hstem
          328 10 callsubr
          437 hmoveto
          308 50 vlineto
          19 105 rlineto
          -69 287 -109 -287 -137 hlineto
          127 287 rlineto
          -112 hlineto
          -193 -392 rlineto
          315 -308 hlineto
          endchar
        </CharString>
        <CharString name="fraction">
          73 725 -20 hstem
          20 499 vstem
          196 -114 rmoveto
          319 931 rlineto
          -113 hlineto
          -324 -931 rlineto
          endchar
        </CharString>
        <CharString name="g">
          -33 20 callsubr
          hstemhm
          37 267 0 110 hintmask 10101000
          257 -210 rmoveto
          -65 callsubr
          hintmask 11010000
          -92 callsubr
          hintmask 10110000
          -54 callgsubr
          hintmask 11010000
          -22 callsubr
          endchar
        </CharString>
        <CharString name="gamma">
          -2 0 86 -65 -66 callsubr
          hstemhm
          14 472 hintmask 10110000
          271 -167 rmoveto
          -14 26 -17 12 27 79 rrcurveto
          hintmask 01110000
          120 397 29 88 43 14 32 6 rlinecurve
          -69 67 3 callsubr
          rlinecurve
          -73 -241 -11 10 -14 53 -11 46 rlinecurve
          -55 233 rlineto
          -118 hlineto
          108 -372 5 callsubr
          rlinecurve
          -23 -71 -17 -49 3 -63 35 -36 rlinecurve
          endchar
        </CharString>
        <CharString name="gamma_gamma">
          355 0 86 -65 -66 callsubr
          hstemhm
          14 472 7 472 -279 85 hintmask 10110100
          115 129 rmoveto
          hintmask 01110100
          5 callsubr
          -73 callsubr
          4 12 4 10 4 9 rrcurveto
          24 -83 25 -83 24 -83 5 callsubr
          -73 callsubr
          rrcurveto
          29 88 43 14 32 6 -23 22 -23 23 -23 22 3 callsubr
          -24 -80 -25 -81 -24 -80 -12 9 -14 55 -10 45 rrcurveto
          hintmask 10111000
          -15 62 -14 62 -15 62 -71 68 rcurveline
          3 callsubr
          -20 callgsubr
          endchar
        </CharString>
        <CharString name="gamma_kappa">
          486 0 86 -65 -66 callsubr
          217 -20 hstem
          85 472 -279 85 256 85 vstem
          635 hmoveto
          195 vlineto
          27 24 26 -36 27 -37 26 -36 rlinecurve
          42 -57 38 -53 74 -1 11 32 11 33 11 32 -24 1 -22 9 -40 54 -33 47 -33 46 -33 47 61 67 60 67 61 67 rrcurveto
          -136 hlineto
          -51 -56 -52 -56 -51 -56 rrcurveto
          166 vlineto
          -142 23 3 callsubr
          rlinecurve
          -20 callgsubr
          108 -372 5 callsubr
          rlinecurve
          -73 callsubr
          19 57 24 26 24 13 rrcurveto
          -443 vlineto
          endchar
        </CharString>
        <CharString name="gbreve">
          -9 callgsubr
          42 78 71 -20 hstemhm
          78 267 -176 226 -50 110 hintmask 10111010
          395 650 -98 callsubr
          -97 -855 rmoveto
          hintmask 10111001
          -65 callsubr
          hintmask 01111100
          -92 callsubr
          hintmask 10111001
          -54 callgsubr
          -22 callsubr
          endchar
        </CharString>
        <CharString name="gcircumflex">
          -9 callgsubr
          48 142 hstemhm
          78 267 -190 251 -61 110 hintmask 10110100
          427 578 -104 callgsubr
          -62 -749 rmoveto
          hintmask 10110010
          -65 callsubr
          hintmask 01111000
          -92 callsubr
          hintmask 10110100
          -54 callgsubr
          38 16 43 60 vhcurveto
          hintmask 01110010
          65 16 -38 -48 hvcurveto
          endchar
        </CharString>
        <CharString name="gcommaaccent">
          13 20 callsubr
          22 111 hstemhm
          78 267 -129 106 23 110 hintmask 10110110
          298 -210 rmoveto
          -65 callsubr
          hintmask 11011000
          -92 callsubr
          hintmask 10111000
          -54 callgsubr
          hintmask 11011000
          -22 callsubr
          -65 331 -31 callsubr
          hintmask 11010110
          -61 callsubr
          4 callsubr
          endchar
        </CharString>
        <CharString name="gdotaccent">
          -9 callgsubr
          -4 104 hstemhm
          78 267 -131 119 12 110 hintmask 10010110
          280 537 -98 callgsubr
          18 -747 rmoveto
          116 41 59 87 hvcurveto
          565 -88 vlineto
          hintmask 01100110
          -21 -11 rlineto
          7 -6 -30 13 -42 hhcurveto
          hintmask 01011000
          -92 callsubr
          hintmask 10010110
          -54 callgsubr
          hintmask 01101010
          -22 callsubr
          endchar
        </CharString>
        <CharString name="germandbls">
          83 78 109 60 55 vstem
          187 hmoveto
          506 vlineto
          63 20 27 40 vhcurveto
          61 -7 -89 -63 hhcurveto
          -65 -118 110 -64 79 -82 43 -44 21 -43 -31 -43 -20 -28 -60 -3 -59 56 -48 -101 rcurveline
          77 -64 162 -14 57 111 44 86 -32 80 -49 52 -73 78 -92 44 40 67 20 -1 rcurveline
          62 69 -22 163 -170 hhcurveto
          -98 -63 -66 -98 hvcurveto
          -537 vlineto
          endchar
        </CharString>
        <CharString name="grave">
          -259 588 143 -1 143 hstem
          65 119 96 10 callsubr
          184 590 -97 callgsubr
          endchar
        </CharString>
        <CharString name="greater">
          -104 13 -21 hstemhm
          -41 313 -259 352 hintmask 11000000
          87 80 rmoveto
          hintmask 10100000
          278 278 rlineto
          1 vlineto
          -278 278 -74 -70 211 -209 -209 -212 rlineto
          endchar
        </CharString>
        <CharString name="guillemotleft">
          42 299 -21 hstem
          50 152 44 152 vstem
          301 148 -57 callgsubr
          292 68 -57 callgsubr
          endchar
        </CharString>
        <CharString name="guillemotright">
          38 299 -21 hstem
          17 152 44 152 vstem
          293 80 -44 callsubr
          -119 -119 rlineto
          -148 -68 -44 callsubr
          -119 -119 rlineto
          endchar
        </CharString>
        <CharString name="guilsinglleft">
          -178 299 -21 hstem
          50 152 vstem
          301 148 -57 callgsubr
          endchar
        </CharString>
        <CharString name="guilsinglright">
          -182 299 -21 hstemhm
          15 152 -67 152 hintmask 11000000
          73 80 -44 callsubr
          rlineto
          hintmask 10100000
          -119 -119 rlineto
          endchar
        </CharString>
        <CharString name="h">
          12 21 -21 460 49 205 -20 hstem
          64 110 149 -59 callsubr
          433 hmoveto
          346 vlineto
          76 -35 46 -50 23 vhcurveto
          -39 callsubr
        </CharString>
        <CharString name="hbar">
          66 21 -21 460 49 205 -20 hstemhm
          78 234 -173 56 -56 110 149 110 -55 55 hintmask 11100110
          508 -64 callsubr
          -81 -12 -29 -12 rrcurveto
          39 vlineto
          hintmask 11110001
          63 105 hlineto
          hintmask 11100101
          -63 59 -110 -59 hlineto
          hintmask 11110001
          -61 -105 hlineto
          hintmask 11101001
          61 -536 hlineto
          hintmask 11100110
          110 389 hlineto
          32 21 117 28 -131 vvcurveto
          -307 vlineto
          endchar
        </CharString>
        <CharString name="hcircumflex">
          101 367 -21 114 49 205 -20 36 142 hstemhm
          82 251 -70 0 149 110 hintmask 11111010
          354 -11 callsubr
          235 -731 rmoveto
          346 vlineto
          76 -35 46 -50 23 vhcurveto
          hintmask 11110110
          -39 callsubr
        </CharString>
        <CharString name="hungarumlaut">
          -193 568 143 -141 143 -125 -27 callgsubr
          8 109 -89 239 -233 109 7 109 -105 109 hintmask 01001000
          219 570 -78 callsubr
          hintmask 00100110
          -91 callgsubr
          hintmask 01001000
          -65 callgsubr
          rlineto
          hintmask 10001000
          -69 -2 -78 callsubr
          hintmask 00110001
          -91 callgsubr
          hintmask 10001000
          16 callsubr
        </CharString>
        <CharString name="hyphen">
          -71 238 80 hstem
          45 320 vstem
          365 308 6 callgsubr
          endchar
        </CharString>
        <CharString name="i">
          -205 522 -21 109 104 hstem
          80 -59 callsubr
          138 592 -98 callgsubr
          52 -592 rmoveto
          -63 callsubr
          endchar
        </CharString>
        <CharString name="iacute">
          11 callsubr
          78 110 -98 56 -41 109 hintmask 11100100
          174 -35 callgsubr
          hintmask 11010010
          -91 callgsubr
          hintmask 11100100
          -65 callgsubr
          rlineto
          hintmask 11011000
          87 -538 rmoveto
          -63 callsubr
          endchar
        </CharString>
        <CharString name="icircumflex">
          -250 21 -66 callsubr
          113 104 hstemhm
          55 110 -98 56 hintmask 11101000
          254 577 -104 callgsubr
          hintmask 11110000
          -22 -538 rmoveto
          -63 callsubr
          endchar
        </CharString>
        <CharString name="idieresis">
          -142 21 -66 callsubr
          113 104 hstemhm
          131 110 -98 56 hintmask 11101000
          167 -55 callsubr
          -14 -539 rmoveto
          -63 callsubr
          endchar
        </CharString>
        <CharString name="igrave">
          -207 21 -66 callsubr
          113 104 hstemhm
          97 119 -91 110 77 109 hintmask 11110100
          216 540 -97 callgsubr
          hintmask 11101100
          92 -540 rmoveto
          -63 callsubr
          endchar
        </CharString>
        <CharString name="imacron">
          -147 21 -66 callsubr
          41 91 -19 104 hstemhm
          134 110 -72 56 hintmask 11100100
          295 538 -36 callsubr
          hintmask 11011000
          166 -538 rmoveto
          -63 callsubr
          endchar
        </CharString>
        <CharString name="iogonek">
          -235 -213 50 184 -21 610 104 hstemhm
          8 68 -21 110 hintmask 11110000
          148 -110 -79 callgsubr
          hintmask 11101000
          3 501 -110 -501 38 hlineto
          -80 -49 -12 -48 -1 -20 -85 callgsubr
          -84 755 -98 callgsubr
          endchar
        </CharString>
        <CharString name="iota">
          -268 21 -66 callsubr
          113 104 hstem
          66 110 -72 85 vstem
          176 hmoveto
          -63 callsubr
          endchar
        </CharString>
        <CharString name="iotadieresis">
          -202 21 -66 callsubr
          113 104 hstemhm
          75 110 -75 85 hintmask 11110000
          185 hmoveto
          -63 callsubr
          32 583 rmoveto
          25 -20 20 -25 -24 -20 -20 -25 -24 20 -20 24 25 20 20 24 vhcurveto
          hintmask 11101000
          88 -44 rmoveto
          25 20 20 25 -92 callgsubr
          -52 callsubr
          hvcurveto
          endchar
        </CharString>
        <CharString name="iotadieresistonos">
          -55 21 -66 callsubr
          77 143 -107 104 hstemhm
          179 85 -75 109 hintmask 11011000
          283 hmoveto
          -63 callsubr
          hintmask 11101000
          85 574 -78 callsubr
          hintmask 11010100
          -91 callgsubr
          hintmask 11101000
          -65 callgsubr
          rlineto
          157 -32 rmoveto
          25 20 20 25 -92 callgsubr
          -52 callsubr
          hvcurveto
          -175 44 rmoveto
          25 -20 20 -25 -24 -20 -20 -25 -24 20 -20 24 25 20 20 24 vhcurveto
          endchar
        </CharString>
        <CharString name="iotatonos">
          11 callsubr
          102 109 -108 85 -83 109 hintmask 11101000
          174 -35 callgsubr
          hintmask 11010010
          -91 callgsubr
          hintmask 11101000
          -65 callgsubr
          rlineto
          hintmask 11010100
          87 -538 rmoveto
          501 vlineto
          -110 -501 hlineto
          endchar
        </CharString>
        <CharString name="itilde">
          -13 21 -66 callsubr
          48 36 -24 65 -12 104 hstemhm
          78 351 -246 110 -85 56 hintmask 11010001
          387 622 rmoveto
          hintmask 11101100
          -102 -112 -82 208 -125 -143 39 -65 rcurveline
          hintmask 11010100
          111 117 79 -215 122 145 rrcurveto
          hintmask 11101010
          -136 -557 rmoveto
          -63 callsubr
          endchar
        </CharString>
        <CharString name="j">
          -245 -209 16 callgsubr
          hstem
          72 -59 callsubr
          72 -35 -64 callgsubr
          57 193 rmoveto
          32 26 28 32 32 -26 26 -32 -32 -28 -26 -32 -32 28 -28 32 hvcurveto
          endchar
        </CharString>
        <CharString name="jcircumflex">
          -74 -209 43 -43 16 callgsubr
          hstemhm
          188 110 -104 56 hintmask 10110100
          368 578 -104 callgsubr
          hintmask 01111000
          -113 -574 -64 callgsubr
          endchar
        </CharString>
        <CharString name="k">
          -7 21 -21 520 -20 214 -20 hstem
          64 -59 callsubr
          476 hmoveto
          -111 176 -63 108 -29 48 131 111 rcurveline
          -81 77 -149 -138 rlineto
          318 -74 callgsubr
          240 vlineto
          14 14 150 -254 rlineto
          endchar
        </CharString>
        <CharString name="kappa">
          -77 callsubr
        </CharString>
        <CharString name="kcommaaccent">
          -7 -135 111 45 -21 520 -20 214 -20 hstem
          64 110 19 42 vstem
          476 hmoveto
          -111 176 -63 108 -29 48 131 111 rcurveline
          -81 77 -149 -138 rlineto
          318 -74 callgsubr
          240 vlineto
          14 14 150 -254 rlineto
          -106 -219 rmoveto
          -107 callsubr
          endchar
        </CharString>
        <CharString name="kgreenlandic">
          -77 callsubr
        </CharString>
        <CharString name="l">
          -213 -45 callsubr
          8 callsubr
          188 -14 callgsubr
          endchar
        </CharString>
        <CharString name="lacute">
          -161 -45 callsubr
          40 143 -56 callsubr
          -82 109 hintmask 11110000
          188 -14 callgsubr
          97 734 -78 callsubr
          hintmask 11101000
          -106 callgsubr
          -65 callgsubr
          rcurveline
          endchar
        </CharString>
        <CharString name="lambda">
          120 -207 75 -45 -21 715 -20 hstem
          79 484 vstem
          562 46 rmoveto
          -32 6 -43 14 -29 88 -133 439 rcurveline
          -27 79 -39 29 -81 -1 -31 -86 rcurveline
          48 -3 12 -11 17 -49 23 -71 rcurveline
          -10 -13 -21 -5 -30 -90 -108 -372 rcurveline
          118 hlineto
          55 233 11 46 14 53 11 10 rlinecurve
          73 -241 23 -77 45 -30 65 -15 rlinecurve
          endchar
        </CharString>
        <CharString name="lambda_lambda">
          479 5 callgsubr
          hstemhm
          79 484 -11 484 hintmask 11010000
          634 320 rmoveto
          11 callgsubr
          -77 45 -30 65 -15 23 22 23 23 23 22 -32 6 -43 14 -29 88 -44 146 -45 147 -44 146 -27 79 -39 29 -81 -1 rrcurveto
          -10 callsubr
          -25 -84 -24 -85 -25 -84 -15 49 rcurveline
          -131 425 -27 79 -39 29 -81 -1 rlinecurve
          -10 callsubr
          -108 -372 rcurveline
          118 hlineto
          24 105 24 129 31 86 11 callgsubr
          -78 46 -28 63 -17 rrcurveto
          hintmask 11100000
          23 22 26 26 22 28 rrcurveto
          endchar
        </CharString>
        <CharString name="lcaron">
          -33 21 -21 682 142 -110 -20 84 47 hstem
          45 -19 callsubr
          -153 -59 callsubr
          278 -14 callgsubr
          200 875 -103 callsubr
        </CharString>
        <CharString name="lcommaaccent">
          -186 -136 111 46 -21 714 -20 hstemhm
          105 110 -107 42 hintmask 11110000
          215 -14 callgsubr
          42 -220 rmoveto
          -102 callsubr
          hintmask 11101000
          -71 callgsubr
        </CharString>
        <CharString name="less">
          -104 13 -21 hstem
          13 352 vstem
          363 146 rmoveto
          -209 212 211 209 -74 70 -278 -278 rlineto
          -1 vlineto
          278 -278 rlineto
          endchar
        </CharString>
        <CharString name="lslash">
          -36 21 -21 516 -20 218 -20 hstem
          177 85 -71 -59 callsubr
          301 hmoveto
          361 vlineto
          105 48 -37 81 -68 -31 rlineto
          241 -172 -106 vlineto
          62 -2 rlineto
          -183 vlineto
          -113 -51 36 -81 77 35 rlineto
          -312 vlineto
          endchar
        </CharString>
        <CharString name="m">
          260 21 -21 454 63 -63 75 hstem
          78 97 171 110 136 -59 callsubr
          702 hmoveto
          346 vlineto
          147 -135 55 -140 -65 vhcurveto
          -2 -1 -26 -13 -14 -8 -56 58 -90 -2 -51 -23 -13 7 rcurveline
          -97 -501 110 383 hlineto
          85 48 73 -32 -98 vvcurveto
          -301 110 356 vlineto
          7 -2 17 -2 5 vhcurveto
          17 7 rlineto
          86 32 37 -19 -101 vvcurveto
          -304 vlineto
          endchar
        </CharString>
        <CharString name="macron">
          -143 619 91 hstem
          18 341 vstem
          299 619 rmoveto
          91 -221 -91 vlineto
          endchar
        </CharString>
        <CharString name="mu">
          -3 -180 -21 189 75 454 -20 hstemhm
          306 111 -37 85 hintmask 11101000
          444 27 rmoveto
          hintmask 11110000
          -73 callgsubr
        </CharString>
        <CharString name="multiply">
          -49 24 458 hstem
          81 311 vstem
          392 218 rmoveto
          -97 115 98 118 -72 58 -86 -104 -86 103 -71 -60 97 -115 -94 -115 68 -62 86 104 87 -103 rlineto
          endchar
        </CharString>
        <CharString name="n">
          19 24 callsubr
          hstem
          64 97 162 -59 callsubr
          433 -93 callsubr
          endchar
        </CharString>
        <CharString name="nacute">
          5 24 callsubr
          11 -27 callgsubr
          78 97 60 109 -7 110 hintmask 11110100
          447 -93 callsubr
          -33 -35 callgsubr
          hintmask 11111000
          -106 callgsubr
          -65 callgsubr
          rcurveline
          endchar
        </CharString>
        <CharString name="ncaron">
          5 24 callsubr
          11 9 callgsubr
          78 97 -77 -19 callsubr
          -37 -59 callsubr
          447 -93 callsubr
          84 731 -103 callsubr
        </CharString>
        <CharString name="ncommaaccent">
          19 -136 111 46 -21 472 55 hstem
          64 97 32 42 88 -59 callsubr
          433 -93 callsubr
          -91 -220 rmoveto
          -107 callsubr
          endchar
        </CharString>
        <CharString name="nine">
          -31 -12 75 178 75 318 75 hstemhm
          13 213 -67 67 103 109 hintmask 11110100
          194 hmoveto
          189 55 143 96 hvcurveto
          258 vlineto
          118 -94 95 -118 -118 -95 -95 -118 -118 95 -94 118 62 19 17 14 22 vhcurveto
          -53 vlineto
          -93 -42 -69 -89 vhcurveto
          hintmask 11101100
          -39 -101 hlineto
          67 395 rmoveto
          -56 -47 46 56 56 47 48 56 54 49 -46 -54 -62 -49 -44 -54 hvcurveto
          endchar
        </CharString>
        <CharString name="ntilde">
          5 24 callsubr
          19 18 callgsubr
          78 97 -83 351 -106 110 hintmask 11011010
          447 -93 callsubr
          64 658 rmoveto
          hintmask 11100100
          -102 callgsubr
        </CharString>
        <CharString name="nu">
          59 0 86 431 -20 hstemhm
          78 423 -210 53 hintmask 11010000
          344 -42 callgsubr
        </CharString>
        <CharString name="numbersign">
          132 21 -21 168 102 87 112 hstemhm
          34 548 -523 106 59 105 -45 112 52 114 hintmask 11110000
          582 168 rmoveto
          102 -122 vlineto
          20 87 rlineto
          102 112 -74 hlineto
          hintmask 11101101
          54 231 rlineto
          -114 hlineto
          -54 -231 rlineto
          -119 hlineto
          54 231 rlineto
          -105 hlineto
          -53 -231 rlineto
          hintmask 11110000
          -137 -112 110 hlineto
          -21 -87 rlineto
          -89 -102 65 hlineto
          hintmask 11101011
          -40 -168 rlineto
          106 hlineto
          38 168 rlineto
          118 hlineto
          -37 -168 rlineto
          112 hlineto
          40 168 rlineto
          hintmask 11110000
          -90 102 rmoveto
          -118 hlineto
          20 87 rlineto
          119 hlineto
          endchar
        </CharString>
        <CharString name="o">
          -85 callsubr
          endchar
        </CharString>
        <CharString name="oacute">
          -46 callsubr
          26 143 -29 callgsubr
          -208 109 -93 callgsubr
          -30 222 -78 callsubr
          hintmask 10100100
          -106 callgsubr
          -65 callgsubr
          rcurveline
          endchar
        </CharString>
        <CharString name="ocircumflex">
          -46 callsubr
          25 142 -29 callgsubr
          -93 callgsubr
          73 261 -104 callgsubr
          endchar
        </CharString>
        <CharString name="odieresis">
          -85 callsubr
          -94 267 -107 callgsubr
          endchar
        </CharString>
        <CharString name="oe">
          291 -12 421 -321 424 -347 244 -140 241 hstemhm
          78 264 -154 435 -171 281 -87 110 hintmask 10000101
          691 120 rmoveto
          hintmask 00101010
          -105 -49 -134 10 78 vvcurveto
          6 vlineto
          281 19 rlineto
          141 vlineto
          hintmask 00010101
          105 -68 80 -100 -72 -34 -8 -48 -54 vhcurveto
          hintmask 01001001
          31 -26 -42 27 -71 hhcurveto
          -90 callgsubr
          63 45 25 25 20 vhcurveto
          hintmask 10001001
          43 -46 59 -8 70 2 57 1 61 17 47 29 rrcurveto
          -389 139 rmoveto
          hintmask 01000101
          -79 -55 -7 -21 -24 -54 7 79 vhcurveto
          142 vlineto
          hintmask 10001001
          83 49 10 29 29 47 -7 -86 vhcurveto
          hintmask 00010101
          281 -38 rmoveto
          hintmask 00011010
          -171 -9 rlineto
          36 vlineto
          hintmask 10000101
          65 31 39 67 41 32 -27 -65 vhcurveto
          endchar
        </CharString>
        <CharString name="ogonek">
          -259 -210 50 hstem
          76 68 vstem
          216 -107 -79 callgsubr
          -69 hlineto
          -80 -49 -12 -48 -1 -20 -85 callgsubr
          endchar
        </CharString>
        <CharString name="ograve">
          -46 callsubr
          26 -27 callgsubr
          78 264 -168 119 -105 263 -62 109 hintmask 01100100
          451 316 rmoveto
          121 -69 75 -116 vhcurveto
          hintmask 10110010
          -90 callgsubr
          vhcurveto
          hintmask 10100100
          -49 callsubr
          hintmask 01110010
          -62 callsubr
          hintmask 10100100
          -82 callgsubr
          hintmask 10110010
          29 47 -4 -81 hvcurveto
          hintmask 10101010
          -49 224 -97 callgsubr
          endchar
        </CharString>
        <CharString name="ohungarumlaut">
          -46 callsubr
          31 -27 callgsubr
          78 264 -193 109 -70 263 -161 109 hintmask 01100100
          451 316 rmoveto
          121 -69 75 -116 vhcurveto
          hintmask 10110000
          -90 callgsubr
          vhcurveto
          hintmask 10100100
          -49 callsubr
          hintmask 01110000
          -62 callsubr
          hintmask 10100100
          -82 callgsubr
          hintmask 10110000
          29 47 -4 -81 hvcurveto
          17 227 -78 callsubr
          hintmask 10101010
          -106 callgsubr
          -65 callgsubr
          rcurveline
          -68 hmoveto
          -105 callsubr
          endchar
        </CharString>
        <CharString name="omacron">
          -46 callsubr
          26 91 -29 callgsubr
          -93 callgsubr
          30 222 12 callsubr
        </CharString>
        <CharString name="omega">
          154 488 10 callsubr
          488 195 -87 callgsubr
        </CharString>
        <CharString name="omegatonos">
          168 538 -27 callgsubr
          327 109 -108 109 63 109 hintmask 10100000
          hintmask 11000000
          396 538 -66 callgsubr
          hintmask 00010000
          177 -343 -87 callgsubr
        </CharString>
        <CharString name="omicron">
          -12 75 -73 411 -303 414 -58 75 hstemhm
          78 90 -90 264 -154 263 39 90 hintmask 10011011
          451 316 rmoveto
          hintmask 10101011
          121 -69 75 -116 -121 -67 -70 -126 vhcurveto
          -132 vlineto
          hintmask 01011011
          -102 57 -92 131 132 53 92 102 vhcurveto
          hintmask 10010101
          -109 -10 rmoveto
          hintmask 10101011
          -54 -35 -22 -41 -41 -37 18 58 vhcurveto
          142 vlineto
          hintmask 01010101
          73 44 12 34 29 47 -4 -81 vhcurveto
          endchar
        </CharString>
        <CharString name="omicrontonos">
          -12 75 -73 108 303 111 -58 75 9 -27 callgsubr
          58 90 -70 110 55 109 -104 109 -15 109 19 90 hintmask 1001110010100000
          312 -35 callgsubr
          hintmask 1001110100100000
          -106 callgsubr
          -65 callgsubr
          rcurveline
          hintmask 1001110001100000
          212 -222 rmoveto
          hintmask 1010110010100000
          121 -69 75 -116 vhcurveto
          hintmask 1001101010100000
          -121 -67 -70 -126 hvcurveto
          -132 vlineto
          hintmask 0101110010100000
          -102 57 -92 131 vhcurveto
          hintmask 1001110001100000
          -49 callsubr
          -109 -10 rmoveto
          hintmask 0101110010100000
          -54 -35 -22 -41 vhcurveto
          hintmask 1001101010100000
          -41 -37 18 58 hvcurveto
          142 vlineto
          hintmask 1010110010100000
          73 44 12 34 vhcurveto
          hintmask 1001110001100000
          29 47 -4 -81 hvcurveto
          endchar
        </CharString>
        <CharString name="one">
          -232 21 -21 508 68 hstem
          127 -59 callsubr
          237 hmoveto
          700 -110 vlineto
          -49 -64 -65 -8 0 vvcurveto
          32 -96 rlineto
          0 57 4 25 11 vhcurveto
          -1 -547 rlineto
          endchar
        </CharString>
        <CharString name="ordfeminine">
          -95 380 50 229 50 hstem
          76 68 164 60 vstem
          347 555 rmoveto
          116 -26 45 -140 -7 vhcurveto
          -10 -61 rlineto
          92 11 -4 -22 -27 vvcurveto
          -88 49 -93 -34 -106 vvcurveto
          -156 131 6 138 22 vhcurveto
          -88 70 rmoveto
          -44 -7 -55 0 59 vvcurveto
          60 54 -13 45 -25 vhcurveto
          endchar
        </CharString>
        <CharString name="oslash">
          24 -10 184 142 196 219 -20 hstemhm
          75 456 -452 110 65 198 hintmask 11110000
          183 -67 rmoveto
          27 64 rlineto
          -5 17 19 -2 21 hhcurveto
          hintmask 11101100
          -49 callsubr
          132 vlineto
          57 -16 47 -28 33 vhcurveto
          58 135 rlineto
          -107 hlineto
          -36 -83 rlineto
          5 -17 -19 2 -20 hhcurveto
          -121 -67 -70 -126 hvcurveto
          -132 vlineto
          -53 15 -49 32 -36 vhcurveto
          -48 -113 rlineto
          111 258 rmoveto
          125 vlineto
          73 44 12 34 3 4 0 -1 4 vhcurveto
          65 -226 rmoveto
          -54 -35 -22 -41 vhcurveto
          -13 hlineto
          89 205 rlineto
          endchar
        </CharString>
        <CharString name="otilde">
          10 -46 callsubr
          8 18 callgsubr
          78 264 -241 351 -264 263 hintmask 01010010
          451 316 rmoveto
          121 -69 75 -116 vhcurveto
          hintmask 10011000
          -90 callgsubr
          vhcurveto
          hintmask 10010010
          -49 callsubr
          hintmask 01011000
          -62 callsubr
          hintmask 10010010
          -82 callgsubr
          hintmask 10011000
          29 47 -4 -81 hvcurveto
          68 316 rmoveto
          hintmask 10100100
          -102 callgsubr
        </CharString>
        <CharString name="p">
          13 -22 callgsubr
          -63 75 hstem
          78 104 -15 21 0 267 vstem
          188 -188 rmoveto
          190 vlineto
          -5 19 9 -9 53 hhcurveto
          108 78 63 125 hvcurveto
          139 vlineto
          109 -61 85 -129 -32 -34 -10 -5 -11 vhcurveto
          -6 7 rlineto
          -104 -711 hlineto
          267 412 rmoveto
          -70 -12 -34 -64 -68 -13 45 45 vhcurveto
          136 vlineto
          46 25 31 56 57 19 -32 -50 vhcurveto
          endchar
        </CharString>
        <CharString name="paragraph">
          241 659 55 hstem
          319 68 125 68 vstem
          683 -199 rmoveto
          949 -419 vlineto
          -132 -54 -102 -124 -124 1 -154 176 hvcurveto
          152 -445 hlineto
          105 1 rlineto
          835 vlineto
          68 -1 rlineto
          -835 vlineto
          endchar
        </CharString>
        <CharString name="parenleft">
          -148 -177 -21 84 85 760 -20 hstem
          78 10 callsubr
          253 -35 rmoveto
          -36 19 -30 3 106 vvcurveto
          514 vlineto
          79 22 31 43 13 vhcurveto
          -55 87 rlineto
          -71 -41 -48 -40 -109 vvcurveto
          -556 vlineto
          -109 49 -37 71 -41 vhcurveto
          endchar
        </CharString>
        <CharString name="parenright">
          -148 -177 -21 929 -20 hstem
          186 56 vstem
          133 -116 rmoveto
          71 41 49 37 109 vvcurveto
          556 vlineto
          109 -48 40 -71 41 vhcurveto
          -55 -87 rlineto
          43 -13 22 -31 -79 vvcurveto
          -514 vlineto
          -106 -30 -3 -36 -19 vhcurveto
          endchar
        </CharString>
        <CharString name="percent">
          204 69 64 -34 34 175 55 185 35 0 35 36 55 22 -20 hstemhm
          154 35 0 35 119 106 17 34 0 34 hintmask 1010111011010000
          117 -1 15 callsubr
          466 -80 rmoveto
          -54 callsubr
          -80 64 -64 80 hvcurveto
          34 144 rmoveto
          hintmask 0110111011100000
          -17 -12 -17 -22 -22 -12 17 17 vhcurveto
          hintmask 0110111011010000
          17 12 17 22 22 12 -17 -17 vhcurveto
          -345 306 rmoveto
          -54 callsubr
          -80 64 -64 80 hvcurveto
          35 144 rmoveto
          hintmask 1011011101010000
          -18 -14 -17 -21 -21 -14 17 18 vhcurveto
          hintmask 1011011011010000
          21 callgsubr
        </CharString>
        <CharString name="period">
          -338 0 111 hstem
          1 101 vstem
          102 50 rmoveto
          -82 callsubr
          endchar
        </CharString>
        <CharString name="perthousand">
          569 -11 176 -66 34 0 34 -34 546 -405 55 39 55 125 35 0 35 36 55 13 -20 29 -20 hstemhm
          131 56 11 35 0 35 107 50 23 50 12 34 0 34 108 50 hintmask 100011011011011101100000
          867 -11 rmoveto
          hintmask 000100000101011101100000
          -54 callsubr
          hvcurveto
          hintmask 100011011011011101100000
          -80 64 -64 80 vhcurveto
          hintmask 000100000101011101100000
          32 144 rmoveto
          -16 -12 -16 -20 -20 -12 16 16 vhcurveto
          hintmask 100011011011011101100000
          16 12 16 20 vhcurveto
          hintmask 000100000101011101100000
          20 12 -16 -16 hvcurveto
          -738 -134 15 callsubr
          hintmask 100011011011011101100000
          466 -80 rmoveto
          hintmask 000100000101011101100000
          -54 callsubr
          hvcurveto
          hintmask 100011011011011101100000
          -80 64 -64 80 vhcurveto
          hintmask 010011011011011101100000
          34 144 rmoveto
          -17 -12 -17 -22 vhcurveto
          hintmask 001011011011011110100000
          -22 -12 17 17 17 12 17 22 hvcurveto
          hintmask 010011010101011101100000
          22 12 -17 -17 hvcurveto
          -345 306 rmoveto
          -54 callsubr
          -80 64 -64 80 hvcurveto
          35 144 rmoveto
          hintmask 100011101011101101100000
          -18 -14 -17 -21 -21 -14 17 18 vhcurveto
          hintmask 100011101011011101100000
          21 callgsubr
        </CharString>
        <CharString name="phi">
          163 285 -59 callsubr
          395 -216 rmoveto
          211 22 2 callgsubr
          118 vlineto
          120 -69 80 -118 -62 -67 -38 -68 -4 vhcurveto
          -300 -19 vlineto
          -76 -3 45 92 hvcurveto
          76 vlineto
          85 28 13 38 8 vhcurveto
          -59 83 rlineto
          -76 -24 -40 -67 -98 vvcurveto
          -125 9 callsubr
          -78 131 vhcurveto
          19 -198 hlineto
          110 304 rmoveto
          279 vlineto
          25 22 15 23 32 23 -22 -88 vhcurveto
          -75 vlineto
          -92 -2 -42 -76 vhcurveto
          endchar
        </CharString>
        <CharString name="pi">
          30 21 -21 449 68 hstemhm
          335 111 -59 80 hintmask 11010000
          474 62 rmoveto
          -24 14 -5 28 0 vvcurveto
          397 -379 -501 110 398 vlineto
          hintmask 11100000
          159 hlineto
          -1 -313 rlineto
          -80 75 -21 0 vhcurveto
          endchar
        </CharString>
        <CharString name="plus">
          -96 21 -21 112 321 hstemhm
          34 320 -216 112 hintmask 11010000
          250 195 rmoveto
          113 vlineto
          hintmask 11100000
          104 105 hlineto
          hintmask 11010000
          -104 132 -112 -132 hlineto
          hintmask 11100000
          -104 -105 hlineto
          hintmask 11010000
          104 -113 hlineto
          endchar
        </CharString>
        <CharString name="plusminus">
          -44 0 68 203 68 hstem
          295 68 vstem
          398 208 rmoveto
          98 -110 42 110 89 -110 108 -101 -108 -109 -89 109 -42 -109 -98 vlineto
          endchar
        </CharString>
        <CharString name="psi">
          164 496 10 callsubr
          393 -219 rmoveto
          214 24 2 callgsubr
          157 vlineto
          61 1 63 -57 36 vhcurveto
          -106 -35 rlineto
          25 -17 28 -7 -86 vvcurveto
          -121 vlineto
          -92 -3 -47 -76 vhcurveto
          -24 399 -109 -399 -18 hlineto
          -76 -4 47 92 hvcurveto
          260 -108 -311 9 callsubr
          -78 131 vhcurveto
          18 -201 hlineto
          endchar
        </CharString>
        <CharString name="q">
          -33 -22 callgsubr
          hstemhm
          37 268 0 109 hintmask 11101000
          414 -210 rmoveto
          711 -102 vlineto
          -7 -10 rlineto
          6 -17 -15 12 -46 hhcurveto
          hintmask 11110000
          -129 -61 -86 -109 hvcurveto
          -138 vlineto
          -125 78 -63 108 53 16 11 4 13 vhcurveto
          -191 vlineto
          hintmask 11101000
          381 vmoveto
          -49 -9 -46 -73 -58 -19 32 49 vhcurveto
          124 vlineto
          98 61 0 16 24 58 -4 -84 vhcurveto
          endchar
        </CharString>
        <CharString name="question">
          -86 101 18 537 75 hstemhm
          13 112 0 109 75 59 hintmask 11011000
          234 119 rmoveto
          51 -1 -53 1 65 vhcurveto
          2 154 47 -11 65 94 rrcurveto
          133 92 -108 157 -141 hhcurveto
          hintmask 11101000
          -119 -59 -84 -93 hvcurveto
          112 hlineto
          40 22 32 55 43 56 -59 -80 -51 vhcurveto
          -42 -66 -83 -56 -131 vvcurveto
          -93 vlineto
          hintmask 11011000
          104 -69 rmoveto
          -82 callsubr
          endchar
        </CharString>
        <CharString name="questiondown">
          6 -210 75 541 111 hstem
          -12 90 68 111 -96 85 50 85 vstem
          336 177 rmoveto
          -40 -22 -32 -55 -43 -56 59 80 51 vhcurveto
          42 66 83 56 131 vvcurveto
          93 -109 vlineto
          -51 1 53 -1 -65 vhcurveto
          -2 -154 -47 11 -65 -94 rrcurveto
          -133 -92 108 -157 141 hhcurveto
          119 59 84 93 hvcurveto
          -165 431 rmoveto
          27 23 23 28 27 -23 23 -27 -28 -23 -23 -27 -28 23 -23 28 hvcurveto
          endchar
        </CharString>
        <CharString name="quotedbl">
          -55 685 -20 hstem
          108 68 74 68 vstem
          181 512 rmoveto
          12 callgsubr
          205 hmoveto
          12 callgsubr
          endchar
        </CharString>
        <CharString name="quotedblbase">
          -153 -147 50 97 111 hstemhm
          31 42 -23 69 62 106 -87 69 hintmask 11010100
          220 -84 rmoveto
          hintmask 11011000
          -107 callsubr
          -81 -29 rmoveto
          -102 callsubr
          hintmask 11100100
          -71 callgsubr
        </CharString>
        <CharString name="quotedblleft">
          -187 456 111 -44 111 30 50 hstemhm
          4 106 -58 69 33 106 -58 69 hintmask 10101010
          218 637 -31 callsubr
          hintmask 10101100
          -61 callsubr
          hintmask 01101010
          4 callsubr
          -162 3 -31 callsubr
          hintmask 10110010
          -61 callsubr
          hintmask 01101010
          4 callsubr
          endchar
        </CharString>
        <CharString name="quotedblright">
          -187 456 50 97 111 -105 111 hstemhm
          34 42 -25 104 29 106 -54 69 hintmask 11001010
          223 525 rmoveto
          hintmask 11001100
          -61 callgsubr
          hintmask 10101010
          -104 callsubr
          -81 -29 rmoveto
          -102 callsubr
          hintmask 11010010
          -84 callgsubr
          hintmask 10101010
          -9 3 -26 27 -13 vhcurveto
          hintmask 11010010
          22 callgsubr
        </CharString>
        <CharString name="quoteleft">
          -337 456 111 -48 111 3 84 hstemhm
          4 106 -96 104 hintmask 10101000
          68 633 -31 callsubr
          hintmask 10110000
          -61 callsubr
          hintmask 01101000
          4 callsubr
          endchar
        </CharString>
        <CharString name="quoteright">
          -337 456 50 97 111 -106 111 hstemhm
          13 104 -83 106 hintmask 11010000
          73 524 rmoveto
          hintmask 11001000
          -61 callgsubr
          hintmask 10110000
          -6 callgsubr
        </CharString>
        <CharString name="quotesinglbase">
          -303 -147 50 97 111 hstem
          48 69 vstem
          70 -84 rmoveto
          -107 callsubr
          endchar
        </CharString>
        <CharString name="quotesingle">
          -307 456 258 0 -20 hstem
          46 90 vstem
          122 589 rmoveto
          14 106 rlineto
          58 -90 -5 -53 vvcurveto
          14 -106 rlineto
          endchar
        </CharString>
        <CharString name="r">
          -101 21 7 callgsubr
          hstemhm
          61 102 hintmask 11010000
          171 -30 callsubr
          hintmask 10110000
          -37 callsubr
          endchar
        </CharString>
        <CharString name="racute">
          -84 21 7 callgsubr
          41 -27 callgsubr
          78 102 -38 109 hintmask 11010100
          188 -30 callsubr
          hintmask 10111000
          -37 callsubr
          133 -35 callgsubr
          hintmask 11010100
          -106 callgsubr
          -65 callgsubr
          rcurveline
          endchar
        </CharString>
        <CharString name="rcaron">
          -74 21 7 callgsubr
          137 47 hstemhm
          45 300 -265 102 hintmask 11011000
          190 -30 callsubr
          hintmask 10111000
          26 107 -53 11 -47 13 -70 -24 rlinecurve
          hintmask 11010100
          -8 4 rlineto
          -102 -501 hlineto
          288 731 -103 callsubr
        </CharString>
        <CharString name="rcommaaccent">
          -75 -135 111 45 7 callgsubr
          hstemhm
          87 102 -98 42 hintmask 11101000
          197 -30 callsubr
          hintmask 11011000
          -37 callsubr
          43 -219 rmoveto
          -102 callsubr
          hintmask 11100100
          -71 callgsubr
        </CharString>
        <CharString name="registered">
          319 -17 55 289 55 139 55 100 55 hstem
          24 68 163 68 186 68 131 68 vstem
          555 39 rmoveto
          -72 202 rlineto
          60 30 4 41 39 vvcurveto
          80 -52 45 -104 vhcurveto
          -113 -437 104 190 6 hlineto
          59 -190 rlineto
          -65 274 rmoveto
          76 31 vlineto
          18 9 -21 -19 -22 -10 -14 -26 hvcurveto
          -3 -440 -77 callgsubr
          endchar
        </CharString>
        <CharString name="rho">
          -174 -21 183 75 391 63 -63 75 8 callsubr
          188 -195 rmoveto
          199 vlineto
          -4 13 18 -10 47 hhcurveto
          123 62 65 117 hvcurveto
          135 vlineto
          117 -52 83 -134 -120 -67 -74 -118 vhcurveto
          -526 vlineto
          262 403 rmoveto
          -67 -17 -28 -57 -58 -20 29 66 vhcurveto
          106 vlineto
          85 30 21 46 50 26 -21 -86 vhcurveto
          endchar
        </CharString>
        <CharString name="ring">
          -259 632 30 0 29 hstemhm
          81 30 hintmask 01100000
          111 632 -36 callgsubr
          hvcurveto
          hintmask 10100000
          -67 callgsubr
        </CharString>
        <CharString name="s">
          -50 454 2 callsubr
          123 18 callsubr
          hintmask 11010000
          36 -56 callgsubr
          hintmask 10101000
          -88 callsubr
          hintmask 11010000
          -81 callgsubr
          endchar
        </CharString>
        <CharString name="sacute">
          6 454 75 9 143 -56 callsubr
          -98 119 19 109 -5 18 callsubr
          hintmask 11100100
          78 -56 callgsubr
          hintmask 11011010
          -88 callsubr
          hintmask 11100100
          -81 callgsubr
          109 400 -78 callsubr
          hintmask 11101010
          -106 callgsubr
          -65 callgsubr
          rcurveline
          endchar
        </CharString>
        <CharString name="scaron">
          6 454 75 104 47 -56 callsubr
          -98 119 123 18 callsubr
          hintmask 11101000
          78 -56 callgsubr
          hintmask 11010100
          -88 callsubr
          hintmask 11101000
          -81 callgsubr
          216 592 -103 callsubr
        </CharString>
        <CharString name="scedilla">
          -50 23 callsubr
          502 2 callsubr
          82 93 -52 18 callsubr
          hintmask 11110100
          100 -74 callsubr
          16 24 rlineto
          hintmask 11101010
          118 6 50 74 75 vvcurveto
          180 -226 -16 -13 58 vhcurveto
          12 -3 -7 30 62 hhcurveto
          hintmask 11101001
          57 23 -23 0 hvcurveto
          32 102 rlineto
          0 -41 29 -71 -132 -45 -85 -63 6 vhcurveto
          hintmask 11110010
          -81 callgsubr
          -110 -11 2 -64 46 -58 87 -15 rlinecurve
          -53 -68 -71 callsubr
        </CharString>
        <CharString name="scircumflex">
          6 454 75 9 142 hstemhm
          78 263 -251 119 -73 251 -55 18 callsubr
          hintmask 11001000
          408 578 rmoveto
          -142 141 -148 -141 66 -39 81 83 rlineto
          hintmask 11100000
          -18 callsubr
          -263 -412 rmoveto
          -75 3 63 -67 119 hhcurveto
          hintmask 11010100
          130 55 78 78 180 -226 -16 -13 58 hvcurveto
          12 -3 -7 30 62 hhcurveto
          hintmask 11010010
          57 23 -23 0 hvcurveto
          32 102 rlineto
          0 -41 29 -71 -132 -45 -85 -63 6 vhcurveto
          hintmask 11010100
          -81 callgsubr
          endchar
        </CharString>
        <CharString name="scommaaccent">
          -50 -135 111 478 2 callsubr
          -4 42 85 18 callsubr
          hintmask 11101100
          36 -56 callgsubr
          hintmask 11010010
          -88 callsubr
          hintmask 11101100
          -81 callgsubr
          56 -357 rmoveto
          -107 callsubr
          endchar
        </CharString>
        <CharString name="section">
          113 -198 75 779 75 hstemhm
          76 82 -34 85 212 85 hintmask 11101000
          78 -8 rmoveto
          -89 3 78 -100 155 hhcurveto
          171 68 88 115 34 -8 29 -15 23 hvcurveto
          16 30 12 64 -5 50 rrcurveto
          hintmask 11011000
          -24 238 -320 -46 109 vvcurveto
          33 14 37 100 43 25 -8 -20 39 vhcurveto
          12 36 25 66 1 vvcurveto
          19 -40 -37 11 -69 hhcurveto
          -155 -70 -88 -84 -40 12 -30 20 -25 hvcurveto
          -22 -28 -12 -36 -2 -32 rrcurveto
          -16 -280 364 83 -158 vvcurveto
          -78 -82 -13 -45 -88 -33 55 34 vhcurveto
          247 179 rmoveto
          -85 49 -151 0 106 vvcurveto
          23 2 18 11 17 vhcurveto
          31 -24 199 -31 -109 vvcurveto
          -18 -3 -16 -4 -15 vhcurveto
          endchar
        </CharString>
        <CharString name="semicolon">
          -320 0 111 295 111 hstem
          44 104 vstem
          96 203 rmoveto
          29 23 23 29 29 -23 23 -29 -29 -23 -23 -29 -29 23 -23 29 hvcurveto
          -14 -287 rmoveto
          -107 callsubr
          endchar
        </CharString>
        <CharString name="seven">
          -43 21 -21 590 110 hstem
          32 394 vstem
          134 hmoveto
          292 590 rlineto
          110 -394 -110 271 vlineto
          -290 -590 rlineto
          endchar
        </CharString>
        <CharString name="sigma">
          94 -12 75 335 80 142 55 hstem
          208 341 -209 110 9 90 vstem
          451 310 -4 callsubr
          -70 callgsubr
          -111 23 -59 callgsubr
        </CharString>
        <CharString name="sigma1">
          -46 -12 75 391 75 hstem
          78 111 vstem
          364 -152 rmoveto
          35 52 25 113 -90 58 rrcurveto
          -128 83 -17 11 90 vvcurveto
          56 vlineto
          54 -5 41 62 57 33 -24 0 vhcurveto
          26 96 rlineto
          0 -41 27 -71 -132 -40 -81 -57 vhcurveto
          -140 vlineto
          -119 98 -52 89 -55 vhcurveto
          47 -29 -11 -49 -19 -29 rrcurveto
          endchar
        </CharString>
        <CharString name="sigma_chi">
          541 21 -21 293 -21 82 151 12 -20 123 55 hstemhm
          340 110 55 500 hintmask 11011110
          983 -26 callgsubr
          -15 29 -25 48 8 70 44 15 rlinecurve
          -71 60 rlineto
          0 -134 -65 76 -151 vhcurveto
          59 -118 -17 callgsubr
          -480 522 -4 callsubr
          hintmask 11101110
          -70 callgsubr
          -111 23 -59 callgsubr
        </CharString>
        <CharString name="sigma_tau">
          374 8 callgsubr
          123 55 hstemhm
          47 90 321 341 -340 90 37 85 hintmask 11110110
          608 132 rmoveto
          -78 46 -54 80 -20 vhcurveto
          15 25 16 26 15 25 rrcurveto
          -47 16 -16 26 49 vvcurveto
          251 99 102 -301 vlineto
          -22 5 -16 18 -19 20 rrcurveto
          hintmask 11111000
          -70 callgsubr
          135 vlineto
          65 -12 15 -3 8 vhcurveto
          27 7 19 9 12 14 21 -30 rcurveline
          93 hlineto
          -268 -200 -59 callgsubr
        </CharString>
        <CharString name="six">
          -31 -12 213 hstemhm
          13 111 101 67 -67 213 hintmask 11010000
          13 201 rmoveto
          -118 94 -95 118 118 95 95 118 vhcurveto
          hintmask 11100000
          118 -95 94 -118 -30 -49 -13 -13 -22 vhcurveto
          53 vlineto
          135 74 15 68 vhcurveto
          26 110 -35 hlineto
          -189 -55 -143 -96 hvcurveto
          109 -256 rmoveto
          55 47 43 56 57 46 -45 -57 -57 -46 -47 -57 -57 -46 47 57 vhcurveto
          endchar
        </CharString>
        <CharString name="slash">
          -12 731 -20 hstem
          -27 456 vstem
          130 -114 rmoveto
          327 931 rlineto
          -120 hlineto
          -324 -931 rlineto
          endchar
        </CharString>
        <CharString name="space">
          -203 endchar
        </CharString>
        <CharString name="sterling">
          -4 0 80 355 80 199 -20 hstemhm
          78 360 -337 320 hintmask 11110000
          438 hmoveto
          101 -171 vlineto
          25 49 6 20 4 51 2 24 -6 28 -8 30 rrcurveto
          hintmask 11101000
          131 109 -167 hlineto
          -6 16 -14 46 39 vvcurveto
          16 6 75 78 33 24 -9 -10 18 vhcurveto
          34 99 rlineto
          13 -21 -36 12 -52 hhcurveto
          -111 -82 -76 -118 -50 10 -30 8 -23 hvcurveto
          -42 -109 77 hlineto
          8 -28 6 -27 -23 vvcurveto
          hintmask 11110000
          -75 -38 -49 -76 vhcurveto
          -101 vlineto
          endchar
        </CharString>
        <CharString name="t">
          -207 -14 callsubr
          hstemhm
          -122 401 -235 85 hintmask 11100000
          229 75 rmoveto
          -45 callgsubr
          199 hlineto
          hintmask 11010000
          -41 callsubr
          endchar
        </CharString>
        <CharString name="t_t">
          27 -14 callsubr
          hstem
          49 85 230 85 vstem
          278 132 rmoveto
          -78 33 -65 119 -2 vhcurveto
          11 29 11 30 11 29 rrcurveto
          -40 -33 8 49 hvcurveto
          266 71 vlineto
          8 34 8 35 8 34 rrcurveto
          -95 199 -112 -199 -122 199 -41 callsubr
          11 29 11 30 11 29 rrcurveto
          -40 -33 8 49 hvcurveto
          266 122 vlineto
          endchar
        </CharString>
        <CharString name="tau">
          -63 21 -66 callsubr
          123 55 hstemhm
          120 85 -34 109 hintmask 11110000
          343 56 rmoveto
          -47 16 -16 26 49 vvcurveto
          hintmask 11101000
          251 99 102 -301 -102 93 -266 vlineto
          -78 46 -54 80 -20 vhcurveto
          endchar
        </CharString>
        <CharString name="tbar">
          -87 0 75 108 80 179 75 hstemhm
          -18 401 -305 234 -164 85 -85 112 hintmask 11110000
          333 75 rmoveto
          hintmask 11100010
          -40 -33 8 49 hvcurveto
          121 vlineto
          hintmask 11101000
          52 105 hlineto
          hintmask 11100010
          -52 40 71 hlineto
          19 callgsubr
          -95 199 -112 -342 hlineto
          hintmask 11101000
          -70 -105 hlineto
          hintmask 11100100
          70 -121 hlineto
          -78 33 -65 119 -2 vhcurveto
          endchar
        </CharString>
        <CharString name="tcaron">
          -122 -14 callsubr
          261 47 hstemhm
          -37 401 -235 112 hintmask 11110000
          314 -39 callgsubr
          53 888 -103 callsubr
        </CharString>
        <CharString name="tcommaaccent">
          -203 -134 111 23 75 367 75 hstemhm
          -118 401 -235 112 -86 42 hintmask 11110000
          233 -39 callgsubr
          -87 -205 rmoveto
          -102 callsubr
          hintmask 11100100
          -71 callgsubr
        </CharString>
        <CharString name="theta">
          22 -12 75 571 75 hstemhm
          334 109 -19 90 hintmask 11010000
          442 505 rmoveto
          124 -62 78 -130 3 vhcurveto
          -155 -57 -138 -134 77 hvcurveto
          -37 -24 -15 -36 -1 -37 rrcurveto
          -150 vlineto
          -115 64 -81 126 -1 vhcurveto
          125 65 82 115 hvcurveto
          -108 4 rmoveto
          hintmask 11100000
          -112 -164 4 98 vvcurveto
          126 vlineto
          45 67 34 97 9 vhcurveto
          -120 86 rmoveto
          74 -49 32 44 59 hhcurveto
          47 31 -33 -64 hvcurveto
          -26 -49 -6 -15 -45 hvcurveto
          endchar
        </CharString>
        <CharString name="thorn">
          13 -214 1000 -798 51 279 191 205 -20 hstemhm
          77 109 51 55 hintmask 10001100
          -10 callgsubr
          hvcurveto
          hintmask 01111100
          19 callsubr
          vhcurveto
          96 vlineto
          hintmask 10001100
          -108 -588 hlineto
          191 220 rmoveto
          hintmask 01111100
          -13 callsubr
        </CharString>
        <CharString name="three">
          -66 -12 75 571 75 hstem
          13 68 5 199 8 -17 callsubr
          -88 76 -83 17 hvcurveto
          -5 1 117 177 rlineto
          110 -288 -110 170 vlineto
          -188 -282 rlineto
          110 hlineto
          84 -4 61 -30 -73 vvcurveto
          -54 -34 -52 -71 -44 -44 27 39 -19 vhcurveto
          endchar
        </CharString>
        <CharString name="tilde">
          -13 620 36 -24 65 hstem
          78 351 vstem
          387 697 rmoveto
          -102 callgsubr
        </CharString>
        <CharString name="trademark">
          84 659 55 hstem
          105 63 37 67 103 102 vstem
          477 512 rmoveto
          188 -64 vlineto
          -38 -108 -39 108 rlineto
          -231 -46 63 -142 48 142 56 -142 48 120 hlineto
          40 -120 rlineto
          31 hlineto
          40 120 rlineto
          -120 vlineto
          endchar
        </CharString>
        <CharString name="two">
          -81 0 75 559 75 hstem
          13 128 165 62 vstem
          388 hmoveto
          101 -247 vlineto
          199 301 rlineto
          153 101 -81 155 -153 hhcurveto
          -88 -66 -55 -65 -23 hvcurveto
          97 -52 rlineto
          33 3 31 31 37 hhcurveto
          69 43 -66 -98 -67 hvcurveto
          -230 -337 rlineto
          -101 vlineto
          endchar
        </CharString>
        <CharString name="u">
          -34 -40 callsubr
          hstem
          36 110 153 -59 callsubr
          409 hmoveto
          -105 callgsubr
          endchar
        </CharString>
        <CharString name="uacute">
          0 callsubr
          55 109 -11 110 hintmask 01111010
          451 hmoveto
          -105 callgsubr
          -36 -35 callgsubr
          hintmask 10111100
          -106 callgsubr
          -65 callgsubr
          rcurveline
          endchar
        </CharString>
        <CharString name="ubreve">
          -12 75 56 -21 419 -20 38 78 71 -20 hstemhm
          157 226 -195 153 7 103 hintmask 11111100
          383 653 -98 callsubr
          hintmask 11111011
          68 -648 rmoveto
          -105 callgsubr
          endchar
        </CharString>
        <CharString name="ucircumflex">
          -40 callsubr
          40 10 callgsubr
          -18 callgsubr
          -50 251 -48 -59 callsubr
          451 hmoveto
          -105 callgsubr
          62 577 -104 callgsubr
          endchar
        </CharString>
        <CharString name="udieresis">
          -40 callsubr
          -18 callgsubr
          153 -59 callsubr
          451 hmoveto
          -105 callgsubr
          -105 583 -107 callgsubr
          endchar
        </CharString>
        <CharString name="ugrave">
          0 callsubr
          -7 119 41 110 -55 109 hintmask 01111010
          451 hmoveto
          -105 callgsubr
          hintmask 10110101
          -48 540 -97 callgsubr
          endchar
        </CharString>
        <CharString name="uhungarumlaut">
          -40 callsubr
          46 143 -56 callsubr
          -39 109 32 109 -58 110 hintmask 01111001
          451 hmoveto
          -105 callgsubr
          11 543 -78 callsubr
          hintmask 10110110
          -106 callgsubr
          -65 callgsubr
          rcurveline
          -68 hmoveto
          -105 callsubr
          endchar
        </CharString>
        <CharString name="umacron">
          -40 callsubr
          41 91 -18 callgsubr
          -95 334 -86 -59 callsubr
          451 hmoveto
          -105 callgsubr
          20 538 -50 callsubr
        </CharString>
        <CharString name="underscore">
          -137 -125 50 hstem
          67 320 vstem
          387 -75 rmoveto
          75 -320 -75 vlineto
          endchar
        </CharString>
        <CharString name="uni00AD">
          -71 238 80 hstem
          50 289 vstem
          365 308 6 callgsubr
          endchar
        </CharString>
        <CharString name="uni0394">
          51 0 101 599 -20 hstem
          526 -62 callgsubr
        </CharString>
        <CharString name="uni03BC">
          43 -177 -21 186 -35 callsubr
          hstem
          78 85 258 85 vstem
          485 27 rmoveto
          -73 callgsubr
        </CharString>
        <CharString name="uogonek">
          0 -213 50 151 -35 callsubr
          hstemhm
          36 110 108 68 -23 110 hintmask 11011100
          394 -51 callsubr
          hintmask 10111100
          -4 28 24 35 70 58 rrcurveto
          hintmask 10111010
          1 501 -110 -309 hlineto
          -50 -9 -44 -66 -64 -14 34 56 vhcurveto
          313 -110 -329 vlineto
          -125 67 -58 121 36 23 11 6 16 vhcurveto
          7 -6 rlineto
          33 hlineto
          -80 -49 -12 -48 -1 -20 -85 callgsubr
          endchar
        </CharString>
        <CharString name="upsilon">
          2 8 callgsubr
          hstemhm
          336 110 -39 85 hintmask 11010000
          336 227 -30 callgsubr
          hintmask 11100000
          -80 callgsubr
        </CharString>
        <CharString name="upsilondieresis">
          16 8 callgsubr
          hstemhm
          111 80 157 110 -6 85 hintmask 11101000
          252 -55 callsubr
          8 -312 -30 callgsubr
          -80 callgsubr
        </CharString>
        <CharString name="upsilondieresistonos">
          16 8 callgsubr
          hstemhm
          73 82 193 110 -44 85 hintmask 11101000
          211 586 rmoveto
          25 -20 20 -25 -24 -20 -20 -25 -24 20 -20 24 25 20 20 24 vhcurveto
          175 -44 rmoveto
          25 20 20 25 -92 callgsubr
          -52 callsubr
          hvcurveto
          -84 32 -66 callgsubr
          hintmask 11110000
          119 -347 -30 callgsubr
          -80 callgsubr
        </CharString>
        <CharString name="upsilontonos">
          16 8 callgsubr
          41 -27 callgsubr
          86 85 82 109 -106 109 -17 110 -29 85 hintmask 11110101
          322 -35 callgsubr
          hintmask 11111001
          -106 callgsubr
          -65 callgsubr
          rcurveline
          hintmask 11110010
          99 -311 -30 callgsubr
          -80 callgsubr
        </CharString>
        <CharString name="uring">
          -40 callsubr
          92 29 -18 callgsubr
          52 30 71 -59 callsubr
          451 hmoveto
          -105 callgsubr
          -78 559 rmoveto
          -17 -13 13 17 17 13 12 17 -67 callgsubr
        </CharString>
        <CharString name="utilde">
          -40 callsubr
          23 65 -30 36 -56 callsubr
          -91 351 -107 110 hintmask 01101101
          451 hmoveto
          -105 callgsubr
          58 632 rmoveto
          hintmask 10110010
          -102 callgsubr
        </CharString>
        <CharString name="v">
          -28 0 86 431 -20 hstemhm
          12 423 -210 53 hintmask 11010000
          278 -42 callgsubr
        </CharString>
        <CharString name="w">
          229 0 94 317 106 0 -20 hstem
          12 680 vstem
          530 hmoveto
          162 501 rlineto
          -118 hlineto
          -82 -306 -84 306 rlineto
          -104 hlineto
          -81 -306 -91 306 rlineto
          -120 hlineto
          161 -501 rlineto
          107 hlineto
          73 267 72 -267 rlineto
          endchar
        </CharString>
        <CharString name="w_w_w">
          1360 21 -21 501 -20 hstem
          1661 hmoveto
          162 501 rlineto
          -118 hlineto
          -89 -319 -77 319 rlineto
          -41 callgsubr
          -129 hlineto
          -27 -102 -28 -125 -27 -102 -28 102 -28 125 -28 102 rrcurveto
          -41 callgsubr
          -120 hlineto
          -1 1 -2 -1 vvcurveto
          -27 -101 -27 -123 -27 -101 -28 102 -28 125 -28 102 rrcurveto
          -41 callgsubr
          -120 hlineto
          54 -167 53 -167 54 -167 -25 callsubr
          105 hlineto
          34 105 34 104 34 105 34 -105 33 -104 34 -105 -25 callsubr
          105 hlineto
          36 111 35 110 36 111 36 -111 35 -110 36 -111 -25 callsubr
          endchar
        </CharString>
        <CharString name="x">
          70 20 callgsubr
          61 451 vstem
          504 hmoveto
          -151 250 159 251 rlineto
          -136 hlineto
          -90 -143 -86 143 rlineto
          -139 hlineto
          156 -252 -156 -249 rlineto
          137 hlineto
          87 140 88 -140 rlineto
          endchar
        </CharString>
        <CharString name="xi">
          -62 271 10 callsubr
          380 -192 rmoveto
          312 vlineto
          -113 -35 -80 -9 119 vvcurveto
          124 vlineto
          92 51 13 89 -26 vhcurveto
          31 96 -24 8 -25 6 -23 16 rlinecurve
          21 -31 -4 45 55 hhcurveto
          18 hlineto
          21 118 rlineto
          -45 hlineto
          -127 -64 -129 -75 71 hvcurveto
          -32 -11 -70 -46 -99 vvcurveto
          -184 vlineto
          -145 122 -26 71 5 vhcurveto
          -216 vlineto
          endchar
        </CharString>
        <CharString name="y">
          25 5 callgsubr
          hstemhm
          37 375 -110 110 hintmask 11010000
          278 -83 callsubr
          hintmask 11100000
          -19 callgsubr
          hintmask 11010000
          -24 callgsubr
          endchar
        </CharString>
        <CharString name="y_alt">
          73 -177 -21 699 -20 hstem
          237 -198 -67 callsubr
          endchar
        </CharString>
        <CharString name="yacute">
          71 5 callgsubr
          41 -27 callgsubr
          78 375 -213 109 -6 110 hintmask 11100100
          319 -83 callsubr
          hintmask 11110000
          -19 callgsubr
          hintmask 11100100
          -24 callgsubr
          33 661 -78 callsubr
          hintmask 11101000
          -106 callgsubr
          -65 callgsubr
          rcurveline
          endchar
        </CharString>
        <CharString name="yacute_alt">
          76 543 -27 callgsubr
          76 21 130 109 hintmask 01000000
          240 -198 -67 callsubr
          hintmask 10100000
          178 741 -66 callgsubr
          endchar
        </CharString>
        <CharString name="ydieresis">
          71 5 callgsubr
          hstemhm
          78 375 -110 110 hintmask 11010000
          319 -83 callsubr
          hintmask 11100000
          -19 callgsubr
          hintmask 11010000
          -24 callgsubr
          61 662 rmoveto
          25 20 20 25 -92 callgsubr
          -52 callsubr
          hvcurveto
          -88 44 rmoveto
          25 -20 20 -25 -24 -20 -20 -25 -24 20 -20 24 25 20 20 24 vhcurveto
          endchar
        </CharString>
        <CharString name="ydieresis_alt">
          69 -177 -21 699 -20 58 89 1 -20 hstemhm
          144 89 43 90 hintmask 11101100
          233 583 rmoveto
          25 -20 20 -25 -24 -20 -20 -25 -24 20 -20 24 25 20 20 24 vhcurveto
          88 -44 rmoveto
          25 20 20 25 hvcurveto
          hintmask 11011100
          -92 callgsubr
          vhcurveto
          hintmask 11101100
          -52 callsubr
          vhcurveto
          -88 -737 -67 callsubr
          endchar
        </CharString>
        <CharString name="yen">
          108 21 -21 174 60 53 80 -58 60 345 -20 hstemhm
          156 320 -218 111 hintmask 11101010
          369 hmoveto
          204 vlineto
          hintmask 11101100
          107 hlineto
          hintmask 11011100
          105 vlineto
          hintmask 11011010
          -107 6 hlineto
          19 42 rlineto
          hintmask 11101100
          88 105 -38 hlineto
          112 238 rlineto
          -117 hlineto
          -107 -238 rlineto
          -26 hlineto
          -106 238 rlineto
          -116 hlineto
          111 -238 rlineto
          -33 -105 82 hlineto
          hintmask 11101010
          20 -42 rlineto
          hintmask 11011010
          -6 vlineto
          hintmask 11011100
          -102 -105 hlineto
          hintmask 11101010
          102 -204 hlineto
          endchar
        </CharString>
        <CharString name="z">
          3 -14 callsubr
          hstem
          87 358 vstem
          -80 callsubr
          endchar
        </CharString>
        <CharString name="zacute">
          3 -14 callsubr
          21 -27 callgsubr
          87 358 -217 109 hintmask 11110000
          -80 callsubr
          219 -35 callgsubr
          hintmask 11101000
          -106 callgsubr
          -65 callgsubr
          rcurveline
          endchar
        </CharString>
        <CharString name="zcaron">
          3 -14 callsubr
          20 9 callgsubr
          87 358 -337 -19 callsubr
          vstem
          -80 callsubr
          353 730 -103 callsubr
        </CharString>
        <CharString name="zdotaccent">
          3 -14 callsubr
          -33 104 hstem
          87 358 -250 119 vstem
          -80 callsubr
          183 535 -98 callgsubr
          endchar
        </CharString>
        <CharString name="zero">
          68 -12 75 534 119 -82 75 hstemhm
          63 110 -107 53 245 53 -47 -52 callgsubr
          hintmask 10101010
          483 506 rmoveto
          hintmask 11001100
          129 -74 81 -134 vhcurveto
          hintmask 10110100
          -69 callgsubr
          vhcurveto
          hintmask 10101001
          -60 callgsubr
          hvcurveto
          -110 21 rmoveto
          -62 -36 -43 -64 vhcurveto
          hintmask 10110100
          -15 callsubr
          hintmask 11001100
          76 12 50 88 vhcurveto
          hintmask 10101001
          89 11 -53 -74 hvcurveto
          endchar
        </CharString>
        <CharString name="zeta">
          23 297 -59 callsubr
          407 -183 rmoveto
          303 vlineto
          -95 -25 -65 -2 -33 40 -36 43 20 77 46 79 70 122 81 91 70 55 -47 100 rcurveline
          -272 -110 151 hlineto
          -41 -45 -78 -76 -64 -133 -28 -58 -14 -81 9 -59 16 -96 90 -53 110 11 rrcurveto
          -209 vlineto
          endchar
        </CharString>
      <CharString index="0">
        rmoveto
        25 -20 20 -25 -24 -20 -20 -25 -24 20 -20 24 25 20 20 24 vhcurveto
        88 -44 rmoveto
        25 20 20 25 -92 callgsubr
        -52 callsubr
        hvcurveto
        return
      </CharString>
      <CharString index="1">
        27 34 -12 29 -24 12 -16 8 -37 -5 -14 -33 return
      </CharString>
      <CharString index="2">
        501 -110 -309 vlineto
        -50 -9 -44 -66 -64 -14 34 56 vhcurveto
        313 -110 -329 vlineto
        -125 67 -58 121 36 23 11 6 16 vhcurveto
        7 -6 rlineto
        return
      </CharString>
      <CharString index="3">
        rmoveto
        -142 141 -148 -141 66 -39 81 83 -18 callsubr
        return
      </CharString>
      <CharString index="4">
        483 506 rmoveto
        129 -74 81 -134 -128 -84 -68 -141 vhcurveto
        -322 -34 callsubr
        -49 99 -60 callgsubr
        vhcurveto
        return
      </CharString>
      <CharString index="5">
        -102 -112 -82 208 -125 -143 39 -65 rcurveline
        111 117 79 -215 122 145 rrcurveto
        endchar
      </CharString>
      <CharString index="6">
        124 hlineto
        39 183 rlineto
        161 hlineto
        41 -183 rlineto
        -67 300 rmoveto
        -109 hlineto
        52 216 rlineto
        return
      </CharString>
      <CharString index="7">
        239 -328 -3 -11 97 vhcurveto
        38 -4 31 33 81 hhcurveto
        43 30 -10 -12 37 hvcurveto
        12 36 23 67 1 vvcurveto
        19 -40 -37 11 -69 hhcurveto
        -155 -71 -89 -84 hvcurveto
        -226 337 69 -196 vvcurveto
        -34 -29 -53 -90 vhcurveto
        return
      </CharString>
      <CharString index="8">
        -35 -15 -147 -26 96 vvcurveto
        145 vlineto
        68 61 48 119 -47 vhcurveto
        30 95 rlineto
        -155 72 -165 -47 -195 vvcurveto
        -128 vlineto
        -101 33 -51 79 -26 vhcurveto
        return
      </CharString>
      <CharString index="9">
        rmoveto
        31 27 28 32 31 -27 27 -31 -32 -28 -27 -31 -32 28 -28 32 hvcurveto
        return
      </CharString>
      <CharString index="10">
        rmoveto
        -46 108 -14 33 -37 5 -16 -8 rlinecurve
        -24 -12 -12 -29 27 -34 49 -63 rcurveline
        return
      </CharString>
      <CharString index="11">
        -109 -75 -61 -110 hvcurveto
        -205 vlineto
        -104 71 -45 99 3 vhcurveto
        57 1 61 17 47 29 -40 95 rcurveline
        return
      </CharString>
      <CharString index="12">
        -16 8 -37 -5 -14 -33 -65 callgsubr
        rcurveline
        return
      </CharString>
      <CharString index="13">
        hintmask 11101000
        463 298 rmoveto
        -86 callgsubr
        hintmask 11101000
        -68 callsubr
        hintmask 11110000
        17 callsubr
        hintmask 11101000
        -78 callgsubr
        hintmask 11110000
        -63 callgsubr
        return
      </CharString>
      <CharString index="14">
        hintmask 01101000
        451 316 rmoveto
        121 -69 75 -116 vhcurveto
        hintmask 10110000
        -90 callgsubr
        vhcurveto
        hintmask 10101000
        -49 callsubr
        hintmask 01110000
        -62 callsubr
        hintmask 10101000
        -82 callgsubr
        hintmask 10110000
        29 47 -4 -81 hvcurveto
        return
      </CharString>
      <CharString index="15">
        25 -20 20 -25 -25 -20 -20 -25 return
      </CharString>
      <CharString index="16">
        -106 callgsubr
        rrcurveto
        return
      </CharString>
      <CharString index="17">
        -121 -67 -70 -126 hvcurveto
        -132 vlineto
        -102 57 -92 131 return
      </CharString>
      <CharString index="18">
        -69 callsubr
        hstemhm
        35 4 callgsubr
        hintmask 10101000
        0 callgsubr
        hintmask 11010000
        -96 callgsubr
        hintmask 11001000
        -68 callgsubr
        hintmask 10110000
        138 110 rmoveto
        hintmask 10101000
        -48 callgsubr
        hintmask 11010000
        -21 callgsubr
        return
      </CharString>
      <CharString index="19">
        hmoveto
        104 -350 vlineto
        344 486 rlineto
        110 -468 -110 329 vlineto
        -342 -489 rlineto
        -101 vlineto
        return
      </CharString>
      <CharString index="20">
        rmoveto
        -68 -12 -26 -36 -40 -14 18 76 -1 vhcurveto
        104 -109 -104 vlineto
        -76 -2 -13 -18 -37 hhcurveto
        -32 -16 19 75 hvcurveto
        132 vlineto
        71 22 24 37 16 vhcurveto
        -62 62 rlineto
        -73 -27 -34 -68 -88 vvcurveto
        -129 vlineto
        -120 43 -80 118 37 41 14 39 27 vhcurveto
        -39 26 41 -14 38 hhcurveto
        118 43 80 120 hvcurveto
        129 vlineto
        88 -34 68 -73 27 vhcurveto
        -60 -62 rlineto
        39 -19 18 -21 -71 vvcurveto
        endchar
      </CharString>
      <CharString index="21">
        -75 callgsubr
        hintmask 11110000
        -99 callsubr
        return
      </CharString>
      <CharString index="22">
        rrcurveto
        -72 -4 64 -24 27 hhcurveto
        52 33 11 39 25 hvcurveto
        return
      </CharString>
      <CharString index="23">
        -32 2 -24 -24 -31 vvcurveto
        return
      </CharString>
      <CharString index="24">
        hmoveto
        -17 101 rlineto
        -18 hlineto
        5 19 17 14 62 vvcurveto
        307 vlineto
        116 -57 88 -131 vhcurveto
        -112 hlineto
        -131 -57 -88 -116 hvcurveto
        -307 vlineto
        -58 10 -18 12 -19 vhcurveto
        -18 hlineto
        -17 -101 rlineto
        228 101 hlineto
        -21 -85 -17 111 hvcurveto
        274 vlineto
        92 32 29 67 vhcurveto
        77 hlineto
        60 33 -45 -76 hvcurveto
        -273 vlineto
        -110 -82 15 -23 vhcurveto
        -101 vlineto
        return
      </CharString>
      <CharString index="25">
        -41 -37 18 58 hvcurveto
        142 vlineto
        73 44 12 34 vhcurveto
        return
      </CharString>
      <CharString index="26">
        17 -173 225 56 -105 vvcurveto
        -26 -21 -29 -48 -57 -18 32 18 vhcurveto
        return
      </CharString>
      <CharString index="27">
        276 -110 -329 vlineto
        -125 67 -57 121 125 67 57 125 vhcurveto
        329 -110 vlineto
        endchar
      </CharString>
      <CharString index="28">
        -86 callsubr
        -4 28 24 35 70 58 rrcurveto
        return
      </CharString>
      <CharString index="29">
        -121 -21 -43 42 65 vvcurveto
        55 vlineto
        return
      </CharString>
      <CharString index="30">
        rmoveto
        204 169 161 215 211 -164 161 -209 -210 -166 -161 -211 -215 171 -161 205 hvcurveto
        107 vmoveto
        -147 -118 109 160 155 118 110 147 145 118 -117 -148 -159 -118 -110 -145 hvcurveto
        return
      </CharString>
      <CharString index="31">
        -56 -1 -35 17 35 vvcurveto
        25 26 17 63 vhcurveto
        44 hlineto
        31 106 rlineto
        -53 hlineto
        -54 -40 18 37 hvcurveto
        -1 76 91 -13 61 -21 -3 98 rcurveline
        -97 32 -143 -13 -15 -117 -7 -53 30 -52 21 -17 -44 -28 -24 -46 5 -70 rrcurveto
        -78 6 62 -65 106 hhcurveto
        92 78 34 0 hvcurveto
        endchar
      </CharString>
      <CharString index="32">
        96 0 115 -208 vhcurveto
        -9 -76 rlineto
        return
      </CharString>
      <CharString index="33">
        -60 callsubr
        110 return
      </CharString>
      <CharString index="34">
        -24 14 -3 28 0 vvcurveto
        441 vlineto
        -111 -13 rlineto
        -302 vlineto
        -85 -32 -16 -31 -2 vhcurveto
        -37 -2 -53 15 -6 6 rrcurveto
        390 -110 -702 vlineto
        110 -9 rlineto
        222 vlineto
        14 -6 21 -10 54 -7 50 -4 36 15 9 7 rrcurveto
        7 -7 6 -7 1 vvcurveto
        endchar
      </CharString>
      <CharString index="35">
        228 hintmask 10101000
        286 hmoveto
        hintmask 01100100
        115 97 45 155 hvcurveto
        274 vlineto
        132 -77 95 -155 vhcurveto
        hintmask 01110000
        -188 hlineto
        hintmask 10110000
        -701 vlineto
        310 190 rmoveto
        hintmask 01100100
        -84 -64 -5 -54 vhcurveto
        -82 hlineto
        hintmask 10101000
        489 88 vlineto
        hintmask 10110000
        75 37 -32 -74 hvcurveto
        return
      </CharString>
      <CharString index="36">
        -84 callgsubr
        -6 callgsubr
      </CharString>
      <CharString index="37">
        -51 -46 -41 -2 -80 10 rrcurveto
        -99 12 -109 -30 -133 vvcurveto
        -179 9 callsubr
        -78 131 132 53 74 120 vhcurveto
        return
      </CharString>
      <CharString index="38">
        -128 -84 -68 -141 hvcurveto
        -322 -34 callsubr
        -49 99 return
      </CharString>
      <CharString index="39">
        -121 -64 -63 18 65 vvcurveto
        28 vlineto
        return
      </CharString>
      <CharString index="40">
        17 12 -12 -17 -17 -12 -13 -17 hvcurveto
        -77 vmoveto
        59 48 48 59 59 -48 48 -59 -59 -48 -48 -59 -59 48 -48 59 hvcurveto
        endchar
      </CharString>
      <CharString index="41">
        rmoveto
        -105 callsubr
        return
      </CharString>
      <CharString index="42">
        -46 -108 return
      </CharString>
      <CharString index="43">
        rmoveto
        -84 -71 -5 0 vhcurveto
        0 30 -84 -1 vvcurveto
        73 75 58 76 3 hvcurveto
        576 -183 vlineto
        22 -92 51 -10 rlineto
        return
      </CharString>
      <CharString index="44">
        86 127 -46 37 -26 vhcurveto
        return
      </CharString>
      <CharString index="45">
        hmoveto
        -204 700 rlineto
        -110 hlineto
        -191 -700 rlineto
        356 101 rmoveto
        -207 hlineto
        102 381 rlineto
        endchar
      </CharString>
      <CharString index="46">
        -102 callsubr
        -84 callgsubr
        return
      </CharString>
      <CharString index="47">
        99 110 49 147 return
      </CharString>
      <CharString index="48">
        rmoveto
        -72 -18 -27 -57 -56 -20 31 68 vhcurveto
        127 vlineto
        86 50 1 82 -15 vhcurveto
        3 16 -32 -71 hvcurveto
        endchar
      </CharString>
      <CharString index="49">
        298 rmoveto
        -75 callgsubr
        return
      </CharString>
      <CharString index="50">
        rmoveto
        -119 119 120 116 -73 72 -187 -187 rlineto
        -1 vlineto
        187 -187 rlineto
        return
      </CharString>
      <CharString index="51">
        127 rmoveto
        -75 3 63 -67 119 hhcurveto
        130 55 78 78 hvcurveto
        return
      </CharString>
      <CharString index="52">
        205 341 rlineto
        -131 hlineto
        -140 -232 -147 232 rlineto
        -130 hlineto
        206 -350 -218 -350 rlineto
        137 hlineto
        147 244 152 -244 rlineto
        endchar
      </CharString>
      <CharString index="53">
        -90 -12 -47 -69 -62 -14 47 50 vhcurveto
        129 vlineto
        return
      </CharString>
      <CharString index="54">
        rmoveto
        114 11 36 65 99 vvcurveto
        544 return
      </CharString>
      <CharString index="55">
        113 -110 110 return
      </CharString>
      <CharString index="56">
        78 110 return
      </CharString>
      <CharString index="57">
        513 hmoveto
        -78 232 rlineto
        77 68 0 93 69 vvcurveto
        124 -60 114 -137 vhcurveto
        return
      </CharString>
      <CharString index="58">
        85 -17 80 651 -20 return
      </CharString>
      <CharString index="59">
        -138 -9 rlineto
        60 vlineto
        return
      </CharString>
      <CharString index="60">
        -217 203 -3 158 60 vhcurveto
        return
      </CharString>
      <CharString index="61">
        -16 0 100 490 110 return
      </CharString>
      <CharString index="62">
        -40 -33 8 49 hvcurveto
        266 71 vlineto
        19 callgsubr
        -95 return
      </CharString>
      <CharString index="63">
        31 105 13 callgsubr
        return
      </CharString>
      <CharString index="64">
        46 21 -21 300 -20 return
      </CharString>
      <CharString index="65">
        hmoveto
        hintmask 11100000
        157 501 rlineto
        -119 hlineto
        hintmask 11010000
        -91 -306 -93 306 rlineto
        hintmask 11100000
        -120 hlineto
        160 -501 rlineto
        endchar
      </CharString>
      <CharString index="66">
        -104 hlineto
        -27 -102 -27 -125 -27 -102 -30 102 -31 125 -30 102 rrcurveto
        return
      </CharString>
      <CharString index="67">
        hstemhm
        78 275 -164 274 return
      </CharString>
      <CharString index="68">
        75 rmoveto
        hintmask 11101000
        -45 callgsubr
        199 -41 callsubr
        return
      </CharString>
      <CharString index="69">
        290 90 vlineto
        76 48 -18 -111 -61 5 -100 -125 hvcurveto
        -94 -300 rmoveto
        195 127 vlineto
        185 12 180 88 return
      </CharString>
      <CharString index="70">
        rmoveto
        -80 -21 -71 29 45 vvcurveto
        156 vlineto
        101 89 6 62 -31 vhcurveto
        return
      </CharString>
      <CharString index="71">
        rmoveto
        -17 -13 13 17 17 13 12 17 return
      </CharString>
      <CharString index="72">
        538 -78 callsubr
        return
      </CharString>
      <CharString index="73">
        -142 106 -57 105 46 21 10 8 23 vhcurveto
        return
      </CharString>
      <CharString index="74">
        105 -65 63 -111 return
      </CharString>
      <CharString index="75">
        21 -37 rmoveto
        137 2 40 51 123 vvcurveto
        561 -168 -106 vlineto
        60 -2 rlineto
        -436 vlineto
        -93 -68 -6 -37 vhcurveto
        return
      </CharString>
      <CharString index="76">
        -15 callgsubr
        48 hlineto
        return
      </CharString>
      <CharString index="77">
        rmoveto
        -90 -2 -36 -80 -76 -2 34 90 vhcurveto
        return
      </CharString>
      <CharString index="78">
        hstemhm
        78 264 -154 263 return
      </CharString>
      <CharString index="79">
        224 110 return
      </CharString>
      <CharString index="80">
        143 hstemhm
        return
      </CharString>
      <CharString index="81">
        -139 rmoveto
        -37 -40 22 58 -23 hvcurveto
        -128 264 162 296 rlineto
        -124 hlineto
        -94 -181 return
      </CharString>
      <CharString index="82">
        439 hmoveto
        101 -251 599 -60 callsubr
        vlineto
        return
      </CharString>
      <CharString index="83">
        44 22 9 5 16 hvcurveto
        -58 vlineto
        -52 -38 -15 -29 vhcurveto
        return
      </CharString>
      <CharString index="84">
        297 hmoveto
        161 53 110 95 98 -52 55 -51 23 hvcurveto
        1 vlineto
        1 0 0 1 1 vhcurveto
        return
      </CharString>
      <CharString index="85">
        -177 -21 186 75 391 63 return
      </CharString>
      <CharString index="86">
        25 16 39 56 35 31 -20 -42 vhcurveto
        return
      </CharString>
      <CharString index="87">
        -24 -80 -25 -81 -24 -80 -12 9 -14 55 -10 45 -18 78 -19 77 -18 78 rrcurveto
        -118 hlineto
        return
      </CharString>
      <CharString index="88">
        -110 -325 hlineto
        -125 67 -63 116 vhcurveto
        return
      </CharString>
      <CharString index="89">
        hstem
        -51 callgsubr
        return
      </CharString>
      <CharString index="90">
        -191 -369 96 -43 151 296 102 -208 27 -53 39 -44 66 1 rlinecurve
        return
      </CharString>
      <CharString index="91">
        -11 callgsubr
        endchar
      </CharString>
      <CharString index="92">
        398 63 vlineto
        19 callgsubr
        -87 return
      </CharString>
      <CharString index="93">
        hmoveto
        700 -60 callsubr
        vlineto
        return
      </CharString>
      <CharString index="94">
        239 21 -21 568 143 3 -20 hstemhm
        82 109 -104 109 41 56 return
      </CharString>
      <CharString index="95">
        -141 rlineto
        return
      </CharString>
      <CharString index="96">
        -36 callgsubr
        17 12 -12 -17 -17 -12 -13 -17 hvcurveto
        return
      </CharString>
      <CharString index="97">
        186 hmoveto
        139 vlineto
        -19 27 32 -4 24 hhcurveto
        108 78 70 129 return
      </CharString>
      <CharString index="98">
        13 -64 158 -106 188 225 89 return
      </CharString>
      <CharString index="99">
        -51 -12 52 619 51 return
      </CharString>
      <CharString index="100">
        112 398 63 vlineto
        8 34 8 35 8 34 rrcurveto
        -87 33 hlineto
        68 return
      </CharString>
      <CharString index="101">
        -104 callsubr
        endchar
      </CharString>
      <CharString index="102">
        106 vlineto
        -44 callgsubr
        return
      </CharString>
      <CharString index="103">
        -51 callsubr
        -4 return
      </CharString>
      <CharString index="104">
        -1 callgsubr
        hlineto
        return
      </CharString>
      <CharString index="105">
        hstem
        74 110 return
      </CharString>
      <CharString index="106">
        410 hmoveto
        -20 callsubr
        return
      </CharString>
      <CharString index="107">
        395 15 callgsubr
        return
      </CharString>
      <CharString index="108">
        -11 50 -39 63 396 50 205 -20 hstemhm
        78 260 return
      </CharString>
      <CharString index="109">
        vlineto
        131 57 78 116 hvcurveto
        return
      </CharString>
      <CharString index="110">
        95 0 590 -489 600 return
      </CharString>
      <CharString index="111">
        249 -138 249 return
      </CharString>
      <CharString index="112">
        -207 75 649 -20 return
      </CharString>
      <CharString index="113">
        rmoveto
        105 -320 -105 vlineto
        return
      </CharString>
      <CharString index="114">
        -21 439 90 -12 -20 return
      </CharString>
      <CharString index="115">
        -12 75 454 -20 return
      </CharString>
      <CharString index="116">
        142 -46 47 hstem
        return
      </CharString>
      <CharString index="117">
        142 -47 47 return
      </CharString>
      <CharString index="118">
        4 11 4 8 4 3 24 -80 25 -81 24 -80 23 return
      </CharString>
      <CharString index="119">
        14 183 rlineto
        58 -90 -5 -53 vvcurveto
        14 -183 rlineto
        return
      </CharString>
      <CharString index="120">
        rlineto
        -137 return
      </CharString>
      <CharString index="121">
        60 41 6 59 39 vvcurveto
        119 -89 58 -104 vhcurveto
        return
      </CharString>
      <CharString index="122">
        -16 callsubr
        vhcurveto
        return
      </CharString>
      <CharString index="123">
        85 581 52 145 67 return
      </CharString>
      <CharString index="124">
        -110 -357 return
      </CharString>
      <CharString index="125">
        65 -30 36 hstemhm
        return
      </CharString>
      <CharString index="126">
        24 103 rlineto
        return
      </CharString>
      <CharString index="127">
        21 -21 293 -21 28 -21 238 -20 hstem
        return
      </CharString>
      <CharString index="128">
        17 14 18 21 21 14 -18 -17 vhcurveto
        endchar
      </CharString>
      <CharString index="129">
        12 -3 rlineto
        0 -24 -25 -48 -27 vhcurveto
        endchar
      </CharString>
      <CharString index="130">
        -222 208 106 return
      </CharString>
      <CharString index="131">
        463 298 rmoveto
        return
      </CharString>
      <CharString index="132">
        hintmask 1111110010000000
        -61 -105 hlineto
        hintmask 1111100110000000
        61 return
      </CharString>
      <CharString index="133">
        117 370 rlineto
        -370 vlineto
        endchar
      </CharString>
</ttFont>
